<svg id="Layer_1" data-name="Layer 1" xmlns="http://www.w3.org/2000/svg" viewBox="0 0 1080 1080">
  <defs>
    <style>
      .cls-1 {
        font-size: 131.63px;
        fill: #ffffff; /* Text color: white */
        font-family: RethinkSans-Bold, Rethink Sans;
        font-weight: 700;
      }
      .cls-2 {
        letter-spacing: -0.02em;
      }
      .cls-3 {
        letter-spacing: -0.03em;
      }
    </style>
  </defs>
  <!-- Background rectangle -->
  <rect width="1080" height="1080" fill="#000000" /> <!-- Dark background -->

  <!-- White paths -->
  <path d="M108.88,554.05c0-.34.1-.69.11-1a106.14,106.14,0,0,1,3.25-22.5,108.9,108.9,0,0,1,213,9.22,106.82,106.82,0,0,1,1.41,17v.57H300.17c-.59-25.28-10.11-46.42-29.38-62.83-15.74-13.4-34.17-19.74-54.83-19.38a80,80,0,0,0-40.36,11.59,82.3,82.3,0,0,0-40.13,70.61,4.62,4.62,0,0,1-.48,0h-25.7l-.41,0Z" fill="#ffffff" />
  <path d="M207.65,631.79c-.88-.07-1.75-.15-2.63-.21a72.19,72.19,0,0,1-25.58-6.48A74,74,0,0,1,143.31,590a72.19,72.19,0,0,1-6.81-22.24,81.43,81.43,0,0,1-.74-10.11c0-.06,0-.12,0-.26h22.3c.88-20.08,9.06-36.26,25.4-47.95a57.21,57.21,0,0,1,42.17-10.35c31.88,4.29,52.07,31.83,51.65,59h-22c-.37-12.72-5.53-23-15.85-30.49a35.7,35.7,0,0,0-22.72-6.9A36.33,36.33,0,0,0,191,532a36.92,36.92,0,0,0-10.65,26.1H158.91a50,50,0,0,0,4,19.1A51.39,51.39,0,0,0,247.23,593l16.65,16.08c-1.13,1.08-2.2,2.15-3.31,3.17a74.22,74.22,0,0,1-35.7,18.12,71.66,71.66,0,0,1-11.41,1.36,2.65,2.65,0,0,0-.49.09Z" fill="#ffffff" />
  
  <!-- White text -->
  <text class="cls-1" transform="translate(361.2 581.99)">
    <tspan class="cls-2">M</tspan>
    <tspan x="106.88" y="0">em</tspan>
    <tspan class="cls-3" x="298.93" y="0">L</tspan>
    <tspan x="365.41" y="0">ens</tspan>
  </text>
</svg>
