<!-- /*
* Licensed to the Apache Software Foundation (ASF) under one
* or more contributor license agreements.  See the NOTICE file
* distributed with this work for additional information
* regarding copyright ownership.  The ASF licenses this file
* to you under the Apache License, Version 2.0 (the
* "License"); you may not use this file except in compliance
* with the License.  You may obtain a copy of the License at
*
*   http://www.apache.org/licenses/LICENSE-2.0
*
* Unless required by applicable law or agreed to in writing,
* software distributed under the License is distributed on an
* "AS IS" BASIS, WITHOUT WARRANTIES OR CONDITIONS OF ANY
* KIND, either express or implied.  See the License for the
* specific language governing permissions and limitations
* under the License.
*
*/ -->

<svg id="Layer_1" data-name="Layer 1" xmlns="http://www.w3.org/2000/svg" viewBox="0 0 736.86 183.3"><defs><style>.cls-1{font-size:131.63px;fill:#231f20;font-family:RethinkSans-Bold, Rethink Sans;font-weight:700;}.cls-2{letter-spacing:-0.05em;}.cls-3{letter-spacing:0em;}.cls-4{letter-spacing:-0.03em;}</style></defs><path d="M0,105.56c0-.35.1-.69.11-1A106.8,106.8,0,0,1,3.37,82,108.78,108.78,0,0,1,113,.08a109.05,109.05,0,0,1,93.41,60.36,107.35,107.35,0,0,1,9.92,30.8,105.79,105.79,0,0,1,1.41,17v.56H191.29C190.7,83.57,181.18,62.43,161.91,46c-15.73-13.41-34.16-19.74-54.83-19.39a80.09,80.09,0,0,0-40.35,11.6,82.34,82.34,0,0,0-40.14,70.61,4.43,4.43,0,0,1-.48,0q-12.85,0-25.7,0H0Z"/><path d="M98.77,183.3l-2.62-.21a72.29,72.29,0,0,1-25.59-6.48,73.93,73.93,0,0,1-36.12-35.14,71.8,71.8,0,0,1-6.82-22.23,79.67,79.67,0,0,1-.73-10.11.8.8,0,0,1,0-.26H49.22c.88-20.08,9.06-36.26,25.4-47.95A57.18,57.18,0,0,1,116.8,50.57c31.87,4.28,52.07,31.82,51.64,59h-22c-.37-12.72-5.53-23-15.84-30.5a35.81,35.81,0,0,0-22.73-6.9A36.4,36.4,0,0,0,82.09,83.53a37,37,0,0,0-10.65,26.1H50a49.93,49.93,0,0,0,4,19.09,51.4,51.4,0,0,0,84.32,15.76L155,160.56c-1.13,1.08-2.2,2.15-3.31,3.16A74,74,0,0,1,116,181.84a70.8,70.8,0,0,1-11.42,1.37,2.81,2.81,0,0,0-.49.09Z"/><text class="cls-1" transform="translate(252.32 133.5)"><tspan class="cls-2">R</tspan><tspan class="cls-3" x="73.71" y="0">es</tspan><tspan class="cls-4" x="208.9" y="0">L</tspan><tspan x="275.37" y="0">ens</tspan></text></svg>