<svg xmlns="http://www.w3.org/2000/svg" version="1.1" xmlns:xlink="http://www.w3.org/1999/xlink" xmlns:svgjs="http://svgjs.dev/svgjs" width="2000" height="1000" preserveAspectRatio="none" viewBox="0 0 2000 1000"><g mask="url(&quot;#SvgjsMask1002&quot;)" fill="none"><rect width="2000" height="1000" x="0" y="0" fill="rgba(15, 15, 26, 1)"></rect><path d="M429.69 0C478.26 17.49 468.04 90 500 90C529.05 90 508.77 15.46 551.72 0C633.77 -29.54 650.86 0 750 0C875 0 875 0 1000 0C1125 0 1125 0 1250 0C1375 0 1375 0 1500 0C1625 0 1625 0 1750 0C1875 0 1937.5 -62.5 2000 0C2062.5 62.5 2000 125 2000 250C2000 375 2000 375 2000 500C2000 625 2000 625 2000 750C2000 860.76 2014.2 867.4 2000 971.52C1997.15 992.4 1987.24 997.57 1965.91 1000C1862.24 1011.81 1857.95 1000 1750 1000C1625 1000 1625 1000 1500 1000C1375 1000 1375 1000 1250 1000C1125 1000 1125 1000 1000 1000C875 1000 875 1000 750 1000C625 1000 625 1000 500 1000C375 1000 375 1000 250 1000C125 1000 62.5 1062.5 0 1000C-62.5 937.5 0 875 0 750C0 625 0 625 0 500C0 375 0 375 0 250C0 125 -62.5 62.5 0 0C62.5 -62.5 125 0 250 0C339.85 0 353.26 -27.51 429.69 0" stroke="rgba(96, 103, 249, 0.58)" stroke-width="2"></path><path d="M1750 137.5C1711.35 137.5 1675 189.01 1675 250C1675 352.41 1711 464.29 1750 464.29C1789.41 464.29 1831.82 351.71 1831.82 250C1831.82 188.32 1789.76 137.5 1750 137.5" stroke="rgba(96, 103, 249, 0.58)" stroke-width="2"></path><path d="M250 414.89C202.79 414.89 157.06 440.67 141.89 500C114.21 608.23 127.92 636.66 164.29 750C181.98 805.14 208.18 836.96 250 836.96C289.99 836.96 318.97 803.5 327.92 750C347.14 635.02 334.03 619.11 306.34 500C295.07 451.55 285.02 414.89 250 414.89" stroke="rgba(96, 103, 249, 0.58)" stroke-width="2"></path><path d="M1500 451.92C1466 451.92 1443.18 477.97 1443.18 500C1443.18 519.86 1468.18 535.71 1500 535.71C1592.74 535.71 1692.31 520.81 1692.31 500C1692.31 478.91 1590.56 451.92 1500 451.92" stroke="rgba(96, 103, 249, 0.58)" stroke-width="2"></path><path d="M1750 562.5C1734.7 562.5 1717.39 661.21 1717.39 750C1717.39 772.01 1734.27 784.09 1750 784.09C1764.81 784.09 1778.48 771.03 1778.48 750C1778.48 660.23 1765.25 562.5 1750 562.5" stroke="rgba(96, 103, 249, 0.58)" stroke-width="2"></path><path d="M187.5 250C94.94 212.15 49.41 245.57 0 179.69C-44.34 120.57 -52.27 37.57 0 0C72.73 -52.27 125 0 250 0C291.01 0 303.14 -24.85 332.03 0C428.14 82.65 423.64 215 500 215C569.4 215 540.77 71.2 623.56 0C665.77 -36.3 686.78 0 750 0C841.66 0 929.19 -47.64 933.33 0C940.06 77.36 754.6 143.52 771.74 250C787.93 350.55 888.3 414.06 1000 414.06C1103.39 414.06 1180.79 350.62 1201.92 250C1224.27 143.59 1071.86 78.49 1086.96 0C1095.9 -46.51 1168.48 0 1250 0C1375 0 1375 0 1500 0C1607.14 0 1699.19 -53.3 1714.29 0C1734.6 71.7 1648.74 129.39 1570.83 250C1541.6 295.25 1539.56 295.06 1500 331.73C1404.71 420.06 1301.14 422.89 1301.14 500C1301.14 569.53 1407.38 553.9 1500 625C1570.21 678.9 1564.34 686.58 1626.81 750C1689.34 813.48 1690.57 878.79 1750 878.79C1805.96 878.79 1834.1 826.04 1857.59 750C1892.61 636.64 1845.56 622.11 1867.02 500C1889.49 372.11 1957.24 370.73 1945.45 250C1932.82 120.73 1801.63 75.84 1818.18 0C1828.91 -49.16 1961.72 -52.63 2000 0C2052.63 72.37 2000 125 2000 250C2000 375 2000 375 2000 500C2000 625 2000 625 2000 750C2000 821.2 2029.56 835.03 2000 892.41C1965.17 960.03 1943.79 968.77 1871.21 1000C1818.79 1022.56 1810.61 1000 1750 1000C1625 1000 1625 1000 1500 1000C1458.34 1000 1456.09 1011.09 1416.67 1000C1331.09 975.93 1336.28 955.57 1250 929.69C1127.94 893.07 1106.91 853.21 1000 875C934.41 888.37 967.9 968.55 905 1000C842.9 1031.05 827.5 1000 750 1000C625 1000 625 1000 500 1000C375 1000 375 1000 250 1000C125 1000 62.5 1062.5 0 1000C-62.5 937.5 0 875 0 750C0 645 -18.19 540 0 540C19.31 540 15.98 658.51 75 750C140.98 852.28 164.61 927.54 250 927.54C331.66 927.54 373.89 854.25 409.09 750C446.07 640.48 433.28 614.48 394.37 500C353.73 380.44 331.55 380.47 250 281.91C228.12 255.47 219.94 263.26 187.5 250" stroke="rgba(96, 103, 249, 0.58)" stroke-width="2"></path><path d="M750 644.74C718.86 644.74 694.44 702.14 694.44 750C694.44 780.41 720.42 801.28 750 801.28C785.24 801.28 824.07 782.23 824.07 750C824.07 703.96 783.67 644.74 750 644.74" stroke="rgba(96, 103, 249, 0.58)" stroke-width="2"></path><path d="M210 0C210 21.24 76.99 82.03 0 82.03C-28.01 82.03 -29.49 11.52 0 0C75.51 -29.49 210 -19.78 210 0" stroke="rgba(96, 103, 249, 0.58)" stroke-width="2"></path><path d="M750 113.1C718.14 113.1 695.4 39.41 695.4 0C695.4 -17.14 722.7 0 750 0C789.59 0 829.17 -20.61 829.17 0C829.17 35.94 785.02 113.1 750 113.1" stroke="rgba(96, 103, 249, 0.58)" stroke-width="2"></path><path d="M1250 50C1228.33 50 1222.83 16.92 1222.83 0C1222.83 -8.08 1236.41 0 1250 0C1302.09 0 1354.17 -11.85 1354.17 0C1354.17 13.15 1294 50 1250 50" stroke="rgba(96, 103, 249, 0.58)" stroke-width="2"></path><path d="M482.39 500C483.3 471.7 483.28 445.65 500 445.65C524.98 445.65 563.17 461.73 565.79 500C573.59 613.91 479.49 646.41 520.83 750C571.59 877.18 637.94 853.45 750 961.54C767.53 978.45 780 988.09 780 1000C780 1007.32 765 1000 750 1000C625 1000 625 1000 500 1000C437.5 1000 376.52 1039.03 375 1000C371.65 914.03 462.13 880.99 490.26 750C515.82 630.99 478.43 623.88 482.39 500" stroke="rgba(96, 103, 249, 0.58)" stroke-width="2"></path><path d="M1055.56 750C1055.56 690.34 1145.59 616.5 1250 608.11C1367.81 598.64 1379.46 654.54 1500 714.29C1522.58 725.48 1536.23 728.17 1536.23 750C1536.23 794.1 1541.64 834.22 1500 846.15C1398.52 875.23 1370.59 858.12 1250 832.03C1148.37 810.04 1055.56 802.3 1055.56 750" stroke="rgba(96, 103, 249, 0.58)" stroke-width="2"></path><path d="M1936.71 750C1936.71 633.71 1983.93 500 2000 500C2015.58 500 2000 625 2000 750C2000 781.64 2013.11 813.29 2000 813.29C1981.46 813.29 1936.71 790.36 1936.71 750" stroke="rgba(96, 103, 249, 0.58)" stroke-width="2"></path><path d="M1673.91 1000C1673.91 993.18 1714.99 973.48 1750 973.48C1766.3 973.48 1776.52 992.23 1776.52 1000C1776.52 1005.49 1763.26 1000 1750 1000C1711.95 1000 1673.91 1006.44 1673.91 1000" stroke="rgba(96, 103, 249, 0.58)" stroke-width="2"></path></g><defs><mask id="SvgjsMask1002"><rect width="2000" height="1000" fill="#ffffff"></rect></mask></defs></svg>