<?xml version="1.0" encoding="utf-8"?>
<!-- Generator: Adobe Illustrator 13.0.0, SVG Export Plug-In . SVG Version: 6.00 Build 14948)  -->
<!DOCTYPE svg PUBLIC "-//W3C//DTD SVG 1.1//EN" "http://www.w3.org/Graphics/SVG/1.1/DTD/svg11.dtd">
<svg version="1.1" id="Layer_1" xmlns="http://www.w3.org/2000/svg" xmlns:xlink="http://www.w3.org/1999/xlink" x="0px" y="0px"
	 width="200px" height="200px" viewBox="0 0 200 200" enable-background="new 0 0 200 200" xml:space="preserve">
<title>Asset 9</title>
<g id="Layer_2">
	<g id="Layer_1-2">
		<path fill="#FFFFFF" d="M175,200H25c-13.807,0-25-11.193-25-25V25C0,11.193,11.193,0,25,0h150c13.807,0,25,11.193,25,25v150
			C200,188.807,188.807,200,175,200z M25,16.656c-4.601,0.017-8.327,3.743-8.344,8.344v150c0.017,4.602,3.743,8.326,8.344,8.344h150
			c4.602-0.018,8.326-3.742,8.344-8.344V25c-0.018-4.601-3.742-8.327-8.344-8.344H25z"/>
	</g>
</g>
<path fill="#FFFFFF" d="M68.08,46.998v29.957c0,2.92,0.107,6.001,0.213,7.753h-7.171l-0.372-3.823h-0.106
	c-1.647,2.92-4.78,4.408-8.125,4.408c-6.161,0-11.102-5.258-11.102-13.334c-0.053-8.763,5.417-13.808,11.631-13.808
	c3.187,0,5.683,1.116,6.854,2.921h0.106V46.998H68.08z M60.008,69.731c0-0.425-0.053-1.009-0.106-1.434
	c-0.478-2.178-2.23-3.983-4.727-3.983c-3.665,0-5.579,3.292-5.579,7.382c0,4.407,2.178,7.169,5.524,7.169
	c2.337,0,4.195-1.593,4.674-3.877c0.159-0.584,0.212-1.168,0.212-1.858v-3.399H60.008z"/>
<path fill="#FFFFFF" d="M82.896,51.515c0,2.23-1.699,4.037-4.355,4.037c-2.549,0-4.249-1.807-4.195-4.037
	c-0.053-2.337,1.646-4.09,4.249-4.09C81.197,47.423,82.843,49.175,82.896,51.515z M74.558,84.71V58.738h8.073V84.71H74.558z"/>
<path fill="#FFFFFF" d="M95.112,58.738l3.505,12.055c0.637,2.177,1.115,4.249,1.487,6.32h0.159c0.426-2.125,0.851-4.089,1.436-6.32
	l3.345-12.055h8.497l-9.665,25.972h-8.073l-9.454-25.972H95.112z"/>
<path fill="#FFFFFF" d="M140.576,80.878v5.013h-28.992v-5.013H140.576z"/>
<path fill="#FFFFFF" d="M68.08,110.729v29.957c0,2.921,0.107,6.001,0.213,7.753h-7.171l-0.372-3.825h-0.106
	c-1.647,2.921-4.78,4.408-8.125,4.408c-6.161,0-11.102-5.258-11.102-13.331c-0.053-8.763,5.417-13.809,11.631-13.809
	c3.187,0,5.683,1.115,6.854,2.922h0.106v-14.075H68.08z M60.008,133.464c0-0.427-0.053-1.009-0.106-1.436
	c-0.478-2.177-2.23-3.982-4.727-3.982c-3.665,0-5.579,3.292-5.579,7.383c0,4.408,2.178,7.169,5.524,7.169
	c2.337,0,4.195-1.594,4.674-3.876c0.159-0.585,0.212-1.17,0.212-1.86v-3.397H60.008z"/>
<path fill="#FFFFFF" d="M82.896,115.243c0,2.231-1.699,4.038-4.355,4.038c-2.549,0-4.249-1.807-4.195-4.038
	c-0.053-2.335,1.646-4.088,4.249-4.088C81.197,111.155,82.843,112.908,82.896,115.243z M74.558,148.442v-25.974h8.073v25.974H74.558
	z"/>
<path fill="#FFFFFF" d="M95.112,122.469l3.505,12.056c0.637,2.179,1.115,4.25,1.487,6.321h0.159
	c0.426-2.124,0.851-4.089,1.436-6.321l3.345-12.056h8.497l-9.665,25.974h-8.073l-9.454-25.974H95.112z"/>
<path fill="#FFFFFF" d="M135.938,134.364v6.271h-20.698v-6.271H135.938z"/>
<path fill="#FFFFFF" d="M161.375,134.364v6.271h-20.698v-6.271H161.375z"/>
</svg>
