<?xml version="1.0" encoding="utf-8"?>
<!-- Generator: Adobe Illustrator 13.0.0, SVG Export Plug-In . SVG Version: 6.00 Build 14948)  -->
<!DOCTYPE svg PUBLIC "-//W3C//DTD SVG 1.1//EN" "http://www.w3.org/Graphics/SVG/1.1/DTD/svg11.dtd">
<svg version="1.1" id="Layer_1" xmlns="http://www.w3.org/2000/svg" xmlns:xlink="http://www.w3.org/1999/xlink" x="0px" y="0px"
	 width="200px" height="200px" viewBox="0 0 200 200" enable-background="new 0 0 200 200" xml:space="preserve">
<title>Asset 9</title>
<g id="Layer_2">
	<g id="Layer_1-2">
		<path fill="#FFFFFF" d="M175,200H25c-13.807,0-25-11.193-25-25V25C0,11.193,11.193,0,25,0h150c13.807,0,25,11.193,25,25v150
			C200,188.807,188.807,200,175,200z M25,16.656c-4.601,0.017-8.327,3.743-8.344,8.344v150c0.017,4.602,3.743,8.326,8.344,8.344h150
			c4.602-0.018,8.326-3.742,8.344-8.344V25c-0.018-4.601-3.742-8.327-8.344-8.344H25z"/>
	</g>
</g>
<rect x="45.5" y="48.796" fill="#FFFFFF" width="109" height="33.136"/>
<rect x="45.5" y="100.244" fill="#FFFFFF" width="44.472" height="47.96"/>
<rect x="110.028" y="100.244" fill="#D1E7F2" width="44.472" height="47.96"/>
</svg>
