<?xml version="1.0" encoding="utf-8"?>
<!-- Generator: Adobe Illustrator 13.0.0, SVG Export Plug-In . SVG Version: 6.00 Build 14948)  -->
<!DOCTYPE svg PUBLIC "-//W3C//DTD SVG 1.1//EN" "http://www.w3.org/Graphics/SVG/1.1/DTD/svg11.dtd">
<svg version="1.1" id="Layer_1" xmlns="http://www.w3.org/2000/svg" xmlns:xlink="http://www.w3.org/1999/xlink" x="0px" y="0px"
	 width="200px" height="200px" viewBox="0 0 200 200" enable-background="new 0 0 200 200" xml:space="preserve">
<title>Asset 1</title>
<path fill="#FFFFFF" d="M179.691,137.016c-3.48-3.748-8.099-7.895-13.435-12.031c-1.614-1.258-6.487-4.973-12.008-8.42
	c-2.763-1.723-5.685-3.381-8.496-4.641c-2.821-1.248-5.485-2.148-8.065-2.171c-4.195,0.009-7.523,2.392-10.199,5.368
	c-2.711,3.008-5.021,6.805-7.369,10.602c-1.787,2.93-3.645,5.924-5.25,7.914c-0.605,0.758-1.082,1.256-1.424,1.574
	c-18.626-7.943-41.757-31.074-49.711-49.715c0.318-0.343,0.819-0.823,1.578-1.43c1.992-1.604,4.973-3.454,7.905-5.247
	c3.805-2.342,7.602-4.652,10.61-7.365c2.976-2.679,5.356-6.013,5.363-10.204c-0.021-2.583-0.923-5.244-2.171-8.066
	c-3.768-8.379-11.165-18.055-13.059-20.51c-4.139-5.322-8.28-9.948-12.027-13.423c-5.031-4.613-9.138-7.187-13.487-7.248
	c-3.994,0.031-8.07,1.75-12,4.012c-3.918,2.279-7.643,5.174-10.575,7.873c-2.04,1.882-5.406,5.244-8.33,9.503
	c-2.907,4.256-5.453,9.44-5.473,15.109c0,15.533,4.397,31.926,12.938,48.741c7.883,15.511,19.125,30.768,32.544,44.209
	c13.418,13.429,28.662,24.688,44.167,32.589c14.861,7.563,29.41,11.875,43.318,12.77l-0.166,0.188h5.566
	c5.676-0.021,10.862-2.578,15.121-5.498c4.262-2.938,7.625-6.318,9.512-8.37c2.692-2.946,5.586-6.683,7.858-10.612
	c2.257-3.938,3.974-8.023,4.005-12.016C186.869,146.146,184.297,142.041,179.691,137.016z M165.123,163.99
	c-2.777,3.035-5.674,5.477-8.291,7.105c-2.609,1.646-4.965,2.413-6.389,2.391c-27.531,0.052-58.989-17.147-83.338-41.562
	C42.713,107.555,25.527,76.067,25.577,48.5c-0.023-1.432,0.745-3.785,2.381-6.395c1.624-2.618,4.051-5.511,7.07-8.292
	c3.19-2.939,6.24-5.06,8.699-6.423c1.97-1.127,3.697-1.705,4.412-1.853c0.708,0.373,2.533,1.603,4.846,3.795
	c2.757,2.574,6.399,6.503,10.742,12.145c3.979,5.166,7.026,9.841,9.059,13.44c1.018,1.797,1.779,3.327,2.268,4.48
	c0.219,0.51,0.382,0.947,0.487,1.278c-0.305,0.338-0.846,0.868-1.755,1.58c-1.936,1.542-4.808,3.317-7.627,5.047
	c-3.758,2.314-7.729,4.73-10.806,7.504c-3.933,3.521-5.477,7.246-5.454,10.432c0,1.53,0.334,2.885,0.781,4.003
	c9.375,23.163,35.85,49.634,59.009,59.012c1.283,0.515,2.645,0.776,4.01,0.774c4.275-0.004,7.684-2.414,10.418-5.443
	c2.768-3.063,5.121-6.928,7.508-10.803c1.734-2.813,3.51-5.68,5.049-7.629c0.709-0.906,1.24-1.451,1.58-1.76
	c1.082,0.364,3.389,1.371,6.088,2.953c3.551,2.03,8.096,5.014,13.1,8.868c6.021,4.63,10.095,8.468,12.646,11.278
	c1.275,1.404,2.174,2.555,2.73,3.384c0.277,0.414,0.471,0.747,0.58,0.964c0,0.001,0,0.002,0.002,0.004
	c-0.156,0.732-0.732,2.448-1.849,4.402C170.189,157.719,168.064,160.784,165.123,163.99z"/>
</svg>
