<?xml version="1.0" encoding="utf-8"?>
<!-- Generator: Adobe Illustrator 13.0.0, SVG Export Plug-In . SVG Version: 6.00 Build 14948)  -->
<!DOCTYPE svg PUBLIC "-//W3C//DTD SVG 1.1//EN" "http://www.w3.org/Graphics/SVG/1.1/DTD/svg11.dtd">
<svg version="1.1" id="Layer_1" xmlns="http://www.w3.org/2000/svg" xmlns:xlink="http://www.w3.org/1999/xlink" x="0px" y="0px"
	 width="200px" height="200px" viewBox="0 0 200 200" enable-background="new 0 0 200 200" xml:space="preserve">
<title>Asset 75</title>
<path id="XMLID_1732_" fill="#FFFFFF" d="M199.081,54.208l-23.146,72.905c-1.734,5.192-6.275,8.653-11.681,8.653H74.905
	c-5.192,0-10.167-3.245-11.898-8.006l-34.181-91.51H9.139c-4.759,0-8.653-3.892-8.653-8.653c0-4.76,3.894-8.654,8.653-8.654h25.745
	c3.674,0,6.92,2.379,8.221,5.842l35.262,93.673h82.208l18.389-58.411H77.069c-4.758,0-8.653-3.892-8.653-8.653
	c0-4.76,3.896-8.654,8.653-8.654h113.791c2.812,0,5.407,1.516,6.925,3.679C199.515,48.584,199.946,51.61,199.081,54.208z
	 M79.232,147.232c-3.677,0-7.356,1.514-9.953,4.109c-2.597,2.597-4.108,6.273-4.108,9.951c0,3.676,1.512,7.356,4.108,9.95
	c2.598,2.594,6.276,4.11,9.953,4.11s7.353-1.518,9.951-4.11c2.597-2.596,4.111-6.274,4.111-9.95c0-3.681-1.514-7.355-4.111-9.951
	S82.909,147.232,79.232,147.232z M156.895,147.232c-3.678,0-7.354,1.514-9.948,4.109c-2.598,2.597-4.111,6.273-4.111,9.951
	c0,3.676,1.516,7.356,4.111,9.95c2.597,2.594,6.272,4.11,9.948,4.11c3.679,0,7.357-1.518,9.954-4.11
	c2.594-2.596,4.107-6.274,4.107-9.95c0-3.681-1.515-7.355-4.107-9.951C164.252,148.746,160.575,147.232,156.895,147.232z"/>
</svg>
