<?xml version="1.0" encoding="utf-8"?>
<!-- Generator: Adobe Illustrator 13.0.0, SVG Export Plug-In . SVG Version: 6.00 Build 14948)  -->
<!DOCTYPE svg PUBLIC "-//W3C//DTD SVG 1.1//EN" "http://www.w3.org/Graphics/SVG/1.1/DTD/svg11.dtd">
<svg version="1.1" id="Layer_1" xmlns="http://www.w3.org/2000/svg" xmlns:xlink="http://www.w3.org/1999/xlink" x="0px" y="0px"
	 width="200px" height="200px" viewBox="0 0 200 200" enable-background="new 0 0 200 200" xml:space="preserve">
<title>Asset 74</title>
<g id="Layer_2">
	<g id="Layer_1-2">
		<path fill="#FFFFFF" d="M175,0H25C11.193,0,0,11.193,0,25v166.656c0,3.258,1.89,6.221,4.844,7.594
			c1.101,0.492,2.293,0.748,3.5,0.75c1.982-0.004,3.899-0.713,5.406-2l48.969-41.969c4.532-3.891,10.308-6.03,16.281-6.031h96
			c13.807,0,25-11.193,25-25V25C200,11.193,188.807,0,175,0z M183.344,125c-0.018,4.602-3.742,8.326-8.344,8.344H79
			c-9.948,0.006-19.567,3.563-27.125,10.031l-35.219,30.188V25c0.017-4.601,3.743-8.327,8.344-8.344h150
			c4.602,0.017,8.326,3.743,8.344,8.344V125z"/>
		<path fill="#FFFFFF" d="M141.656,49.031H58.344c-4.6-0.282-8.557,3.218-8.838,7.818s3.218,8.557,7.818,8.838
			c0.34,0.021,0.681,0.021,1.021,0h83.313c4.6,0.282,8.557-3.218,8.838-7.818c0.283-4.599-3.218-8.557-7.816-8.838
			C142.337,49.01,141.996,49.01,141.656,49.031z"/>
		<path fill="#FFFFFF" d="M141.656,82.375H58.344c-4.6-0.282-8.557,3.218-8.838,7.818c-0.282,4.599,3.218,8.557,7.817,8.838
			c0.34,0.021,0.681,0.021,1.021,0h83.313c4.6,0.282,8.557-3.218,8.838-7.818c0.283-4.599-3.218-8.557-7.816-8.838
			C142.337,82.354,141.996,82.354,141.656,82.375z"/>
	</g>
</g>
</svg>
