<?xml version="1.0" encoding="utf-8"?>
<!-- Generator: Adobe Illustrator 13.0.0, SVG Export Plug-In . SVG Version: 6.00 Build 14948)  -->
<!DOCTYPE svg PUBLIC "-//W3C//DTD SVG 1.1//EN" "http://www.w3.org/Graphics/SVG/1.1/DTD/svg11.dtd">
<svg version="1.1" id="Layer_1" xmlns="http://www.w3.org/2000/svg" xmlns:xlink="http://www.w3.org/1999/xlink" x="0px" y="0px"
	 width="200px" height="200px" viewBox="0 0 200 200" enable-background="new 0 0 200 200" xml:space="preserve">
<title>Asset 9</title>
<path fill="#FFFFFF" d="M176.15,45c-2.443-2.447-5.687-3.677-8.873-3.673c-3.18-0.006-6.424,1.223-8.859,3.673v-0.001
	l-86.317,86.308L40.189,99.386c-2.449-2.445-5.69-3.674-8.873-3.666c-3.182-0.006-6.433,1.226-8.868,3.683
	c-2.419,2.391-3.674,5.645-3.664,8.841c-0.009,3.199,1.245,6.445,3.688,8.876l40.775,40.784c2.435,2.416,5.647,3.672,8.854,3.668
	c0.02,0,0.037,0,0.056,0c3.143,0,6.38-1.24,8.796-3.649l95.199-95.198c2.438-2.444,3.672-5.682,3.662-8.865
	C179.816,50.67,178.585,47.437,176.15,45z M162.479,49.056L162.479,49.056L162.479,49.056l-0.177-0.177L162.479,49.056z"/>
</svg>
