<?xml version="1.0" encoding="utf-8"?>
<!-- Generator: Adobe Illustrator 13.0.0, SVG Export Plug-In . SVG Version: 6.00 Build 14948)  -->
<!DOCTYPE svg PUBLIC "-//W3C//DTD SVG 1.1//EN" "http://www.w3.org/Graphics/SVG/1.1/DTD/svg11.dtd">
<svg version="1.1" id="Layer_1" xmlns="http://www.w3.org/2000/svg" xmlns:xlink="http://www.w3.org/1999/xlink" x="0px" y="0px"
	 width="200px" height="200px" viewBox="0 0 200 200" enable-background="new 0 0 200 200" xml:space="preserve">
<title>Asset 9</title>
<g id="Layer_2">
	<g id="Layer_1-2">
		<path fill="#FFFFFF" d="M167.5,190h-135C20.074,190,10,179.926,10,167.5v-135C10,20.074,20.074,10,32.5,10h135
			c12.426,0,22.5,10.074,22.5,22.5v135C190,179.926,179.926,190,167.5,190z M32.5,24.991c-4.141,0.015-7.495,3.368-7.509,7.509v135
			c0.015,4.142,3.368,7.493,7.509,7.51h135c4.142-0.017,7.493-3.368,7.51-7.51v-135c-0.017-4.141-3.368-7.495-7.51-7.509H32.5z"/>
	</g>
</g>
<path fill="#FFFFFF" d="M147.516,66.033c-1.533-1.535-3.568-2.307-5.567-2.304c-1.995-0.004-4.03,0.767-5.558,2.304v-0.001
	l-54.156,54.149l-20.021-20.026c-1.537-1.534-3.57-2.305-5.567-2.3c-1.996-0.004-4.036,0.769-5.564,2.311
	c-1.518,1.5-2.305,3.541-2.299,5.547c-0.005,2.007,0.781,4.044,2.314,5.568l25.582,25.588c1.528,1.517,3.543,2.304,5.555,2.302
	c0.012,0,0.023,0,0.035,0c1.972,0,4.003-0.778,5.519-2.29l59.728-59.727c1.529-1.534,2.304-3.565,2.298-5.562
	C149.816,69.591,149.043,67.562,147.516,66.033z M138.938,68.578L138.938,68.578L138.938,68.578l-0.111-0.111L138.938,68.578z"/>
</svg>
