<?xml version="1.0" encoding="utf-8"?>
<!-- Generator: Adobe Illustrator 13.0.0, SVG Export Plug-In . SVG Version: 6.00 Build 14948)  -->
<!DOCTYPE svg PUBLIC "-//W3C//DTD SVG 1.1//EN" "http://www.w3.org/Graphics/SVG/1.1/DTD/svg11.dtd">
<svg version="1.1" id="Layer_1" xmlns="http://www.w3.org/2000/svg" xmlns:xlink="http://www.w3.org/1999/xlink" x="0px" y="0px"
	 width="200px" height="200px" viewBox="0 0 200 200" enable-background="new 0 0 200 200" xml:space="preserve">
<g>
	<path fill="#FFFFFF" d="M12.448,199.508c-3.343,0-6.626-1.276-9.179-3.769c-5.045-5.047-5.045-13.253,0-18.299L177.373,3.276
		c5.045-5.045,13.252-5.045,18.297,0c5.046,5.046,5.046,13.252,0,18.298L21.627,195.678
		C19.074,198.231,15.792,199.508,12.448,199.508z"/>
	<path fill="#FFFFFF" d="M186.552,199.508c-3.344,0-6.626-1.276-9.179-3.769L3.33,21.635c-5.045-5.045-5.045-13.252,0-18.298
		c5.046-5.045,13.252-5.045,18.298,0L195.73,177.44c5.046,5.046,5.046,13.252,0,18.299
		C193.178,198.231,189.834,199.508,186.552,199.508z"/>
</g>
</svg>
