<?xml version="1.0" encoding="utf-8"?>
<!-- Generator: Adobe Illustrator 13.0.0, SVG Export Plug-In . SVG Version: 6.00 Build 14948)  -->
<!DOCTYPE svg PUBLIC "-//W3C//DTD SVG 1.1//EN" "http://www.w3.org/Graphics/SVG/1.1/DTD/svg11.dtd">
<svg version="1.1" id="Layer_1" xmlns="http://www.w3.org/2000/svg" xmlns:xlink="http://www.w3.org/1999/xlink" x="0px" y="0px"
	 width="200px" height="200px" viewBox="0 0 200 200" enable-background="new 0 0 200 200" xml:space="preserve">
<title>Asset 69</title>
<path fill="#FFFFFF" d="M193.426,42.445L133.055,12.26c-1.064-0.533-2.225-0.797-3.373-0.795c-1.371-0.002-2.744,0.375-3.951,1.119
	c-2.213,1.381-3.568,3.794-3.568,6.412c-0.021,12.482-10.178,22.636-22.656,22.659c-12.482-0.023-22.638-10.177-22.659-22.659
	c0-2.615-1.36-5.037-3.57-6.407c-1.215-0.749-2.588-1.125-3.957-1.125c-1.152,0-2.307,0.266-3.366,0.797L5.574,42.449
	c-2.622,1.294-4.177,3.951-4.175,6.736c0,0.791,0.127,1.594,0.387,2.374L11.848,81.75c1.059,3.16,3.994,5.155,7.148,5.153
	c0.791,0,1.593-0.127,2.378-0.385l20.281-6.767v90.188c0.006,9.697,7.884,17.586,17.595,17.596h80.509
	c9.702-0.01,17.587-7.896,17.595-17.596V79.751l20.274,6.765c0.785,0.262,1.593,0.389,2.39,0.389
	c3.154,0.002,6.084-2.001,7.135-5.162l10.063-30.183c0.256-0.787,0.383-1.583,0.383-2.376
	C197.6,46.404,196.052,43.75,193.426,42.445z M145.426,63.186c-1.988,1.413-3.138,3.709-3.136,6.118v100.635
	c-0.002,1.385-1.147,2.529-2.531,2.529H59.25c-1.394,0-2.529-1.14-2.532-2.529V69.304c-0.002-2.432-1.173-4.702-3.128-6.114
	c-1.298-0.946-2.846-1.415-4.381-1.417l-0.002-0.01c-0.809,0-1.598,0.135-2.342,0.37l-23.083,7.693l-5.619-16.838L63.53,30.295
	c4.816,15.288,19.126,26.396,35.984,26.404c16.863-0.008,31.153-11.119,35.981-26.405l45.37,22.693l-5.619,16.838l-23.043-7.68
	c-0.773-0.258-1.577-0.385-2.369-0.385C148.268,61.761,146.725,62.253,145.426,63.186z"/>
</svg>
