<?xml version="1.0" encoding="utf-8"?>
<!-- Generator: Adobe Illustrator 13.0.0, SVG Export Plug-In . SVG Version: 6.00 Build 14948)  -->
<!DOCTYPE svg PUBLIC "-//W3C//DTD SVG 1.1//EN" "http://www.w3.org/Graphics/SVG/1.1/DTD/svg11.dtd">
<svg version="1.1" id="Layer_1" xmlns="http://www.w3.org/2000/svg" xmlns:xlink="http://www.w3.org/1999/xlink" x="0px" y="0px"
	 width="200px" height="200px" viewBox="0 0 200 200" enable-background="new 0 0 200 200" xml:space="preserve">
<title>Asset 75</title>
<path id="XMLID_351_" fill="#FFFFFF" d="M175.986,18.938H23.78c-12.289,0-22.28,9.8-22.28,21.82v120.969
	c0,12.25,10.221,22.586,22.28,22.586h152.207c11.867,0,21.514-10.145,21.514-22.586V40.758
	C197.5,28.508,188.045,18.938,175.986,18.938z M182.188,161.727c0,4.02-2.795,7.273-6.201,7.273H23.78
	c-3.637,0-6.967-3.483-6.967-7.273V40.758c0-3.599,3.139-6.508,6.967-6.508h152.207c3.637,0,6.201,2.68,6.201,6.508V161.727
	L182.188,161.727z"/>
<path id="XMLID_354_" fill="#FFFFFF" d="M69.028,90.294c1.416-0.957,2.488-1.685,3.254-2.221c1.684-1.148,4.479-3.101,4.479-7.158
	c0-4.211-3.445-7.656-7.656-7.656c-1.914,0-3.637,0.689-4.977,1.837c-2.029,1.493-14.508,9.762-31.429,20.902
	c-2.259,1.492-3.675,3.942-3.751,6.622c-0.115,2.68,1.11,5.245,3.254,6.929l32.233,25.036c1.378,1.072,3.063,1.608,4.708,1.608
	c2.297,0,4.555-1.034,6.048-2.948c2.603-3.33,1.991-8.153-1.34-10.757l-24.538-19.064c3.024-1.99,6.508-4.287,9.838-6.508
	C63.324,94.16,66.655,91.901,69.028,90.294z M63.822,75.402c-0.229,0.229-0.459,0.459-0.651,0.689
	C63.362,75.823,63.592,75.594,63.822,75.402z"/>
<path id="XMLID_357_" fill="#FFFFFF" d="M166.416,96.495c-16.959-11.14-29.4-19.447-31.43-20.901
	c-1.34-1.148-3.063-1.837-4.977-1.837c-4.211,0-7.656,3.445-7.656,7.656c0,4.058,2.795,6.01,4.479,7.159
	c0.766,0.536,1.837,1.263,3.254,2.22c2.373,1.608,5.742,3.828,9.953,6.623c3.33,2.221,6.775,4.518,9.838,6.508l-24.538,19.064
	c-3.33,2.603-3.943,7.388-1.34,10.757c1.493,1.952,3.752,2.947,6.049,2.947c1.646,0,3.292-0.536,4.708-1.607l32.233-25.036
	c2.144-1.685,3.368-4.249,3.254-6.929C170.053,100.438,168.636,97.95,166.416,96.495z M135.255,75.823
	c0.229,0.191,0.421,0.459,0.65,0.689C135.714,76.283,135.484,76.053,135.255,75.823z"/>
<path id="XMLID_358_" fill="#FFFFFF" d="M110.678,61.276c-4.096-1.11-8.269,1.34-9.379,5.398l-19.217,71.777
	c-1.11,4.097,1.34,8.27,5.397,9.379c0.651,0.191,1.34,0.269,1.991,0.269c3.369,0,6.47-2.259,7.388-5.666l19.218-71.777
	C117.186,66.56,114.774,62.349,110.678,61.276z"/>
</svg>
