<?xml version="1.0" encoding="utf-8"?>
<!-- Generator: Adobe Illustrator 13.0.0, SVG Export Plug-In . SVG Version: 6.00 Build 14948)  -->
<!DOCTYPE svg PUBLIC "-//W3C//DTD SVG 1.1//EN" "http://www.w3.org/Graphics/SVG/1.1/DTD/svg11.dtd">
<svg version="1.1" id="Layer_1" xmlns="http://www.w3.org/2000/svg" xmlns:xlink="http://www.w3.org/1999/xlink" x="0px" y="0px"
	 width="200px" height="200px" viewBox="0 0 200 200" enable-background="new 0 0 200 200" xml:space="preserve">
<title>Asset 76</title>
<path fill="#FFFFFF" d="M186.443,59.837c-4.898-9.014-11.867-17.054-20.66-23.892c-17.842-13.868-41.365-21.444-66.279-21.449
	c-24.913,0.005-48.437,7.581-66.275,21.449c-8.796,6.847-15.771,14.886-20.663,23.892C7.424,69.28,4.805,79.392,4.808,89.794
	c-0.003,20.103,10.046,39.214,27.492,53.163c-2.773,6.885-9.455,19.21-23.921,27.871c-2.256,1.341-3.576,3.759-3.574,6.293
	c0,0.659,0.089,1.322,0.271,1.971c0.72,2.625,2.816,4.584,5.379,5.194l0.098,0.218h1.618c10.602-0.014,23.281-3.805,37.932-11.084
	c8.777-4.376,16.19-8.98,20.585-11.869c9.29,2.36,18.97,3.543,28.817,3.545c24.914-0.004,48.437-7.585,66.279-21.453
	c8.793-6.852,15.762-14.887,20.659-23.885c5.136-9.447,7.757-19.55,7.752-29.964C194.199,79.376,191.578,69.271,186.443,59.837z
	 M48.072,142.184c0.166-0.635,0.25-1.268,0.248-1.904c0.002-2.354-1.134-4.616-3.122-6.018
	c-16.463-11.582-25.686-27.806-25.684-44.468c0-16.47,8.743-31.523,23.206-42.599c14.441-11.051,34.548-17.983,56.764-17.984
	c0.008,0,0.013,0,0.021,0v0.003c22.224-0.007,42.335,6.926,56.783,17.981c14.459,11.075,23.203,26.129,23.203,42.599
	c0,16.468-8.744,31.521-23.203,42.595c-14.447,11.055-34.56,17.988-56.783,17.984c-9.684,0-19.148-1.309-28.121-3.868
	c-0.668-0.192-1.356-0.285-2.033-0.285c-1.467,0-2.921,0.44-4.159,1.296c-7.582,5.228-17.287,10.916-26.958,15.224
	C44.478,153.807,47.129,145.695,48.072,142.184z"/>
</svg>
