<?xml version="1.0" encoding="utf-8"?>
<!-- Generator: Adobe Illustrator 13.0.0, SVG Export Plug-In . SVG Version: 6.00 Build 14948)  -->
<!DOCTYPE svg PUBLIC "-//W3C//DTD SVG 1.1//EN" "http://www.w3.org/Graphics/SVG/1.1/DTD/svg11.dtd">
<svg version="1.1" id="Layer_1" xmlns="http://www.w3.org/2000/svg" xmlns:xlink="http://www.w3.org/1999/xlink" x="0px" y="0px"
	 width="200px" height="200px" viewBox="0 0 200 200" enable-background="new 0 0 200 200" xml:space="preserve">
<title>Asset 37</title>
<g id="Layer_2">
	<g id="Layer_1-2">
		<path fill="#FFFFFF" d="M175,25H25C11.193,25,0,36.193,0,50v100c0,13.807,11.193,25,25,25h150c13.807,0,25-11.193,25-25V50
			C200,36.193,188.807,25,175,25z M25,41.656h150c4.602,0.017,8.326,3.743,8.344,8.344v8.344H16.656V50
			C16.673,45.399,20.399,41.673,25,41.656z M175,158.344H25c-4.601-0.018-8.327-3.742-8.344-8.344V75h166.688v75
			C183.326,154.602,179.602,158.326,175,158.344z"/>
		<rect x="125" y="100" fill="#FFFFFF" width="41.656" height="41.656"/>
	</g>
</g>
</svg>
