<?xml version="1.0" encoding="utf-8"?>
<!-- Generator: Adobe Illustrator 13.0.0, SVG Export Plug-In . SVG Version: 6.00 Build 14948)  -->
<!DOCTYPE svg PUBLIC "-//W3C//DTD SVG 1.1//EN" "http://www.w3.org/Graphics/SVG/1.1/DTD/svg11.dtd">
<svg version="1.1" id="Layer_1" xmlns="http://www.w3.org/2000/svg" xmlns:xlink="http://www.w3.org/1999/xlink" x="0px" y="0px"
	 width="200px" height="200px" viewBox="0 0 200 200" enable-background="new 0 0 200 200" xml:space="preserve">
<path fill="#FFFFFF" d="M143.287,62.803h-17.434v-0.177c0-1.464,0.021-2.533,0.094-3.166c0.01-0.087,0.02-0.165,0.029-0.234
	c0.396-0.031,1.08-0.055,1.961-0.044l15.35,0.002h11.061v-11.06V16.061V7.5h-2.498V5h-8.561h-28.494
	c-14.209-0.006-25.75,3.856-33.726,11.377c-7.987,7.519-12.145,18.527-12.128,32.005v14.419l-8.929,0.002H48.95v11.061v34.776
	v11.063h11.063h8.927v65.093v11.063h11.063h34.793h11.062v-11.063v-65.095h14.688h10.22l0.809-10.193l2.734-34.779l0.948-11.926
	H143.287z M140.787,45.613h-12.85c-6.326-0.054-10.735,2.057-13.062,5.593c-2.299,3.488-2.562,7.589-2.582,11.42v13.729h28.286
	l-2.348,29.768h-25.938v76.163H82.5l0.002-76.16h-19.99v-29.77h19.99V48.365c0.014-9.965,2.778-17.24,7.98-22.142
	c5.21-4.904,13.202-7.667,24.313-7.671l25.992-0.001V45.613z M143.287,16.061v-0.009h0.001l0.001,0.009H143.287z"/>
</svg>
