<?xml version="1.0" encoding="utf-8"?>
<!-- Generator: Adobe Illustrator 13.0.0, SVG Export Plug-In . SVG Version: 6.00 Build 14948)  -->
<!DOCTYPE svg PUBLIC "-//W3C//DTD SVG 1.1//EN" "http://www.w3.org/Graphics/SVG/1.1/DTD/svg11.dtd">
<svg version="1.1" id="Layer_1" xmlns="http://www.w3.org/2000/svg" xmlns:xlink="http://www.w3.org/1999/xlink" x="0px" y="0px"
	 width="200px" height="200px" viewBox="0 0 200 200" enable-background="new 0 0 200 200" xml:space="preserve">
<title>Asset 60</title>
<path fill="#FFFFFF" d="M99.5,1C45.1,1,1,45.1,1,99.5C1,153.898,45.1,198,99.5,198c54.398,0,98.5-44.102,98.5-98.5
	C198,45.1,153.898,1,99.5,1z M99.5,184C52.832,184,15,146.168,15,99.5S52.832,15,99.5,15S184,52.832,184,99.5S146.168,184,99.5,184z
	"/>
<rect x="31.958" y="85.443" fill="#FFFFFF" width="27.782" height="27.782"/>
<rect x="67.042" y="85.443" fill="#FFFFFF" width="27.782" height="27.782"/>
<rect x="104.925" y="85.443" fill="#FFFFFF" width="27.783" height="27.782"/>
<rect x="141.219" y="85.443" fill="#FFFFFF" width="27.781" height="27.782"/>
</svg>
