<?xml version="1.0" encoding="utf-8"?>
<!-- Generator: Adobe Illustrator 13.0.0, SVG Export Plug-In . SVG Version: 6.00 Build 14948)  -->
<!DOCTYPE svg PUBLIC "-//W3C//DTD SVG 1.1//EN" "http://www.w3.org/Graphics/SVG/1.1/DTD/svg11.dtd">
<svg version="1.1" id="Layer_1" xmlns="http://www.w3.org/2000/svg" xmlns:xlink="http://www.w3.org/1999/xlink" x="0px" y="0px"
	 width="200px" height="200px" viewBox="0 0 200 200" enable-background="new 0 0 200 200" xml:space="preserve">
<title>Home, Website</title>
<path fill="#FFFFFF" d="M175.505,69.393l-66.075-52.86c-5.479-4.503-13.379-4.503-18.858,0l-66.076,52.86
	c-3.929,3.196-6.196,8.002-6.163,13.067v106.761h163.333V82.46C181.699,77.396,179.434,72.589,175.505,69.393z M85.151,174.373
	V137.25h29.696v37.123H85.151z M166.818,174.373h-37.121v-51.971H70.303v51.971H33.182V82.46c-0.037-0.559,0.182-1.104,0.594-1.485
	L100,28.115l66.075,52.86c0.412,0.379,0.631,0.926,0.595,1.485L166.818,174.373z"/>
</svg>
