<?xml version="1.0" encoding="utf-8"?>
<!-- Generator: Adobe Illustrator 13.0.0, SVG Export Plug-In . SVG Version: 6.00 Build 14948)  -->
<!DOCTYPE svg PUBLIC "-//W3C//DTD SVG 1.1//EN" "http://www.w3.org/Graphics/SVG/1.1/DTD/svg11.dtd">
<svg version="1.1" id="Layer_1" xmlns="http://www.w3.org/2000/svg" xmlns:xlink="http://www.w3.org/1999/xlink" x="0px" y="0px"
	 width="200px" height="200px" viewBox="0 0 200 200" enable-background="new 0 0 200 200" xml:space="preserve">
<path fill="#FFFFFF" d="M135.222,13H66.778C37.077,13,13,37.077,13,66.778v68.444C13,164.919,37.077,189,66.778,189h68.444
	C164.919,189,189,164.919,189,135.222V66.778C189,37.077,164.919,13,135.222,13z M174.333,135.222
	c-0.019,21.59-17.521,39.093-39.111,39.111H66.778c-21.589-0.019-39.087-17.521-39.111-39.111V66.778
	C27.69,45.188,45.188,27.69,66.778,27.667h68.444c21.59,0.024,39.093,17.522,39.111,39.111V135.222z"/>
<path fill="#FFFFFF" d="M101,57c-24.301,0-44,19.699-44,44c0,24.302,19.699,44,44,44c24.302,0,44-19.698,44-44l0,0
	C145,76.699,125.302,57,101,57z M101,130.333c-16.199,0-29.333-13.139-29.333-29.333c0-16.199,13.134-29.333,29.333-29.333
	c16.194,0,29.333,13.134,29.333,29.333C130.314,117.194,117.194,130.314,101,130.333z"/>
<path fill="#FFFFFF" d="M146.958,45.265c5.395,0,9.777,4.378,9.777,9.778s-4.383,9.778-9.777,9.778
	c-5.396,0-9.778-4.378-9.778-9.778S141.563,45.265,146.958,45.265z"/>
</svg>
