<?xml version="1.0" encoding="utf-8"?>
<!-- Generator: Adobe Illustrator 13.0.0, SVG Export Plug-In . SVG Version: 6.00 Build 14948)  -->
<!DOCTYPE svg PUBLIC "-//W3C//DTD SVG 1.1//EN" "http://www.w3.org/Graphics/SVG/1.1/DTD/svg11.dtd">
<svg version="1.1" id="Layer_1" xmlns="http://www.w3.org/2000/svg" xmlns:xlink="http://www.w3.org/1999/xlink" x="0px" y="0px"
	 width="200px" height="200px" viewBox="0 0 200 200" enable-background="new 0 0 200 200" xml:space="preserve">
<title>Asset 69</title>
<path fill="#FFFFFF" d="M204.305,67.327L204.305,67.327l-32.781-43.704c-1.241-1.664-3.084-2.784-5.135-3.123L100.824,9.572
	c-0.452-0.074-0.893-0.106-1.328-0.106c-0.44,0-0.88,0.035-1.317,0.104L32.606,20.5c-2.048,0.339-3.895,1.454-5.142,3.132
	L-5.313,67.333c-1.08,1.44-1.616,3.152-1.616,4.848c-0.002,1.933,0.695,3.874,2.069,5.398l98.349,109.274
	c1.529,1.691,3.705,2.676,6.009,2.68c0.003,0,0.005,0,0.008,0c2.285,0,4.471-0.977,6.002-2.682l98.35-109.271
	c1.369-1.532,2.072-3.471,2.07-5.404C205.932,70.478,205.389,68.762,204.305,67.327z M202.216,68.904L202.216,68.904L202.216,68.904
	l0.161-0.122L202.216,68.904z M123.033,29.66l28.369,4.728l-9.457,14.18L123.033,29.66z M182.35,77.329l-61.052,67.841l27.13-74.624
	L182.35,77.329z M156.621,55.691l8.827-13.241l13.245,17.657L156.621,55.691z M131.671,69.333l-32.173,88.479L67.323,69.333H131.671
	z M75.295,53.171l24.203-24.204l24.203,24.204H75.295z M77.697,145.154L16.646,77.317l33.915-6.783L77.697,145.154z M47.587,34.388
	l28.364-4.727L57.046,48.565L47.587,34.388z M20.302,60.106l13.245-17.655l8.827,13.24L20.302,60.106z"/>
</svg>
