<?xml version="1.0" encoding="utf-8"?>
<!-- Generator: Adobe Illustrator 13.0.0, SVG Export Plug-In . SVG Version: 6.00 Build 14948)  -->
<!DOCTYPE svg PUBLIC "-//W3C//DTD SVG 1.1//EN" "http://www.w3.org/Graphics/SVG/1.1/DTD/svg11.dtd">
<svg version="1.1" id="Layer_1" xmlns="http://www.w3.org/2000/svg" xmlns:xlink="http://www.w3.org/1999/xlink" x="0px" y="0px"
	 width="200px" height="200px" viewBox="0 0 200 200" enable-background="new 0 0 200 200" xml:space="preserve">
<title>Asset 66</title>
<g id="Layer_2">
	<g id="Layer_1-2">
		<path fill="#FFFFFF" d="M141.672,81.5V41.656c-0.631-23.015-19.799-41.161-42.813-40.53c-22.128,0.606-39.924,18.402-40.53,40.53
			V81.5c-28.754,23.015-33.407,64.982-10.392,93.736c23.015,28.754,64.982,33.406,93.736,10.393
			c28.754-23.016,33.407-64.982,10.393-93.737C148.994,88.056,145.508,84.571,141.672,81.5z M99.984,16.656
			c13.807,0,25,11.193,25,25v30.219c-16.063-6.344-33.937-6.344-50,0V41.656C74.984,27.849,86.177,16.656,99.984,16.656z
			 M108.328,182.594v-26.563c7.986-4.6,10.732-14.803,6.133-22.789s-14.803-10.732-22.789-6.133s-10.732,14.803-6.133,22.789
			c1.468,2.549,3.584,4.665,6.133,6.133v26.563c-27.22-4.65-45.517-30.486-40.866-57.705c2.249-13.167,9.673-24.886,20.616-32.545
			c17.22-11.778,39.904-11.778,57.125,0c22.626,15.83,28.135,47.006,12.305,69.632C133.197,172.915,121.487,180.339,108.328,182.594
			z"/>
	</g>
</g>
</svg>
