<?xml version="1.0" encoding="utf-8"?>
<!-- Generator: Adobe Illustrator 13.0.0, SVG Export Plug-In . SVG Version: 6.00 Build 14948)  -->
<!DOCTYPE svg PUBLIC "-//W3C//DTD SVG 1.1//EN" "http://www.w3.org/Graphics/SVG/1.1/DTD/svg11.dtd">
<svg version="1.1" id="Layer_1" xmlns="http://www.w3.org/2000/svg" xmlns:xlink="http://www.w3.org/1999/xlink" x="0px" y="0px"
	 width="200px" height="200px" viewBox="0 0 200 200" enable-background="new 0 0 200 200" xml:space="preserve">
<title>Asset 40</title>
<g id="Layer_2">
	<g id="Layer_1-2">
		<path fill="#FFFFFF" d="M163.25,105.344l-58.5,58.688c-3.428,3.08-8.703,2.798-11.783-0.631
			c-2.838-3.158-2.851-7.945-0.029-11.119l43.969-44.125H8.344c-4.6,0.281-8.557-3.219-8.838-7.818
			c-0.282-4.599,3.218-8.557,7.817-8.838c0.34-0.021,0.681-0.021,1.021,0H137.5L92.969,47.406
			c-3.199-3.317-3.103-8.599,0.214-11.798c3.214-3.1,8.298-3.12,11.536-0.046l58.5,57.969c3.262,3.255,3.268,8.538,0.013,11.8
			c-0.005,0.005-0.009,0.009-0.013,0.013H163.25z"/>
		<path fill="#FFFFFF" d="M200,175V25c0-13.807-11.193-25-25-25h-58.344c-4.6,0.282-8.1,4.239-7.818,8.838
			c0.258,4.207,3.612,7.56,7.818,7.818H175c4.607,0,8.344,3.736,8.344,8.344v150c0,4.607-3.736,8.344-8.344,8.344h-58.344
			c-4.6,0.281-8.1,4.238-7.818,8.838c0.258,4.207,3.612,7.561,7.818,7.818H175C188.807,200,200,188.807,200,175z"/>
	</g>
</g>
</svg>
