<?xml version="1.0" encoding="utf-8"?>
<!-- Generator: Adobe Illustrator 13.0.0, SVG Export Plug-In . SVG Version: 6.00 Build 14948)  -->
<!DOCTYPE svg PUBLIC "-//W3C//DTD SVG 1.1//EN" "http://www.w3.org/Graphics/SVG/1.1/DTD/svg11.dtd">
<svg version="1.1" id="Layer_1" xmlns="http://www.w3.org/2000/svg" xmlns:xlink="http://www.w3.org/1999/xlink" x="0px" y="0px"
	 width="200px" height="200px" viewBox="0 0 200 200" enable-background="new 0 0 200 200" xml:space="preserve">
<title>Asset 76</title>
<g id="Layer_2">
	<g id="Layer_1-2">
		<path fill="#FFFFFF" d="M100,192.016c-2.039-0.002-3.993-0.812-5.438-2.25l-76.531-76.531
			C-5.897,88.983-5.637,49.926,18.614,25.997C40.711,4.193,75.569,2.207,100,21.359c26.686-21.152,65.466-16.666,86.617,10.02
			c19.436,24.52,17.424,59.71-4.68,81.855l-76.5,76.531C103.993,191.204,102.039,192.014,100,192.016z M61.594,23.266
			c-25.543-0.069-46.306,20.582-46.375,46.125c-0.033,12.378,4.896,24.253,13.687,32.969L100,173.609l71.094-71.25l0,0
			c18.078-18.122,18.044-47.468-0.078-65.547s-47.469-18.044-65.547,0.078c-1.52,1.354-3.439,2.177-5.469,2.344
			c-2.072,0.044-4.075-0.744-5.563-2.188c-8.696-8.739-20.515-13.654-32.844-13.656V23.266z"/>
	</g>
</g>
</svg>
