<?xml version="1.0" encoding="utf-8"?>
<!-- Generator: Adobe Illustrator 13.0.0, SVG Export Plug-In . SVG Version: 6.00 Build 14948)  -->
<!DOCTYPE svg PUBLIC "-//W3C//DTD SVG 1.1//EN" "http://www.w3.org/Graphics/SVG/1.1/DTD/svg11.dtd">
<svg version="1.1" id="Layer_1" xmlns="http://www.w3.org/2000/svg" xmlns:xlink="http://www.w3.org/1999/xlink" x="0px" y="0px"
	 width="200px" height="200px" viewBox="0 0 200 200" enable-background="new 0 0 200 200" xml:space="preserve">
<title>Asset 71</title>
<g id="Layer_2">
	<g id="Layer_1-2">
		<path fill="#FFFFFF" d="M158.328,66.656c-4.602,0.017-8.326,3.743-8.344,8.344v16.656c0,27.614-22.386,50-50,50s-50-22.386-50-50
			V75c0.282-4.6-3.218-8.557-7.818-8.838s-8.557,3.218-8.838,7.818c-0.021,0.34-0.021,0.681,0,1.021v16.656
			c0.049,33.572,25.037,61.879,58.344,66.094v33.906c-0.282,4.6,3.218,8.557,7.818,8.838c4.599,0.283,8.557-3.218,8.838-7.816
			c0.021-0.341,0.021-0.682,0-1.021V157.75c33.307-4.215,58.295-32.521,58.344-66.094V75
			C166.654,70.399,162.93,66.673,158.328,66.656z"/>
		<path fill="#FFFFFF" d="M99.984,125c18.408-0.018,33.326-14.936,33.344-33.344V33.344c0.563-18.407-13.9-33.785-32.308-34.349
			C82.614-1.569,67.235,12.896,66.672,31.302c-0.021,0.681-0.021,1.361,0,2.042v58.313C66.689,110.053,81.588,124.965,99.984,125z
			 M83.328,33.344c-0.399-9.208,6.742-16.995,15.95-17.394c9.208-0.398,16.996,6.743,17.394,15.95c0.021,0.481,0.021,0.963,0,1.444
			v58.313c0.398,9.207-6.742,16.995-15.949,17.395c-9.208,0.398-16.996-6.743-17.395-15.951c-0.021-0.481-0.021-0.963,0-1.444
			V33.344z"/>
	</g>
</g>
</svg>
