<?xml version="1.0" encoding="utf-8"?>
<!-- Generator: Adobe Illustrator 13.0.0, SVG Export Plug-In . SVG Version: 6.00 Build 14948)  -->
<!DOCTYPE svg PUBLIC "-//W3C//DTD SVG 1.1//EN" "http://www.w3.org/Graphics/SVG/1.1/DTD/svg11.dtd">
<svg version="1.1" id="Layer_1" xmlns="http://www.w3.org/2000/svg" xmlns:xlink="http://www.w3.org/1999/xlink" x="0px" y="0px"
	 width="200px" height="200px" viewBox="0 0 200 200" enable-background="new 0 0 200 200" xml:space="preserve">
<title>Home, Website</title>
<path fill="#FFFFFF" d="M99.5,3.5c-53.019,0-96,42.981-96,96c0,53.02,42.981,96,96,96c53.02,0,96-42.98,96-96
	C195.5,46.481,152.52,3.5,99.5,3.5z M99.5,178.236c-43.485,0-78.737-35.252-78.737-78.736c0-43.485,35.252-78.737,78.737-78.737
	c43.484,0,78.736,35.252,78.736,78.737C178.236,142.984,142.984,178.236,99.5,178.236z"/>
<path fill="#FFFFFF" d="M97.626,145.967v-7.875c-9.854-1.007-18.7-4.927-26.539-11.76l7.875-9.387
	c6.041,5.25,12.261,8.381,18.664,9.387v-20.93c-8.128-1.941-14.079-4.493-17.854-7.659c-3.776-3.164-5.664-7.856-5.664-14.078
	c0-6.219,2.175-11.309,6.527-15.266c4.351-3.955,10.015-6.112,16.991-6.474v-5.393h6.905v5.502c7.91,0.577,15.39,3.273,22.439,8.09
	l-7.015,9.925c-4.747-3.379-9.892-5.464-15.429-6.257v20.282h0.324c8.271,1.942,14.35,4.568,18.231,7.875
	c3.886,3.309,5.825,8.109,5.825,14.402s-2.229,11.416-6.688,15.371c-4.46,3.956-10.356,6.113-17.691,6.475v7.768L97.626,145.967
	L97.626,145.967z M90.021,76.329c-1.834,1.618-2.751,3.632-2.751,6.042c0,2.411,0.717,4.315,2.158,5.717
	c1.438,1.403,4.17,2.751,8.199,4.046V73.47C94.39,73.758,91.855,74.711,90.021,76.329z M112.73,123.636
	c2.013-1.653,3.02-3.739,3.02-6.257s-0.792-4.513-2.372-5.988c-1.584-1.474-4.532-2.856-8.847-4.15v19.417
	C107.984,126.297,110.715,125.291,112.73,123.636z"/>
</svg>
