<?xml version="1.0" encoding="utf-8"?>
<!-- Generator: Adobe Illustrator 13.0.0, SVG Export Plug-In . SVG Version: 6.00 Build 14948)  -->
<!DOCTYPE svg PUBLIC "-//W3C//DTD SVG 1.1//EN" "http://www.w3.org/Graphics/SVG/1.1/DTD/svg11.dtd">
<svg version="1.1" id="Layer_1" xmlns="http://www.w3.org/2000/svg" xmlns:xlink="http://www.w3.org/1999/xlink" x="0px" y="0px"
	 width="200px" height="200px" viewBox="0 0 200 200" enable-background="new 0 0 200 200" xml:space="preserve">
<title>Asset 38</title>
<rect x="40.009" y="48.06" fill="#FFFFFF" width="37.491" height="45"/>
<rect x="92.49" y="48.06" fill="#FFFFFF" width="67.5" height="14.99"/>
<rect x="92.49" y="78.041" fill="#FFFFFF" width="67.5" height="14.99"/>
<rect x="40.009" y="108.05" fill="#FFFFFF" width="120.009" height="14.991"/>
<rect x="40.009" y="136.85" fill="#FFFFFF" width="120.009" height="14.991"/>
<path fill="#FFFFFF" d="M167.5,11.75h-135c-12.426,0-22.5,10.074-22.5,22.5V92.3V122.9v41.85c0,12.426,10.074,22.5,22.5,22.5h135
	c12.426,0,22.5-10.074,22.5-22.5V122.9V92.3V34.25C190,21.824,179.926,11.75,167.5,11.75z M175.01,122.9v41.85
	c-0.017,4.142-3.368,7.493-7.51,7.51h-135c-4.141-0.017-7.495-3.368-7.509-7.51V122.9V92.3V34.25
	c0.015-4.141,3.368-7.495,7.509-7.509h135c4.142,0.015,7.493,3.368,7.51,7.509V92.3V122.9z"/>
</svg>
