<?xml version="1.0" encoding="utf-8"?>
<!-- Generator: Adobe Illustrator 13.0.0, SVG Export Plug-In . SVG Version: 6.00 Build 14948)  -->
<!DOCTYPE svg PUBLIC "-//W3C//DTD SVG 1.1//EN" "http://www.w3.org/Graphics/SVG/1.1/DTD/svg11.dtd">
<svg version="1.1" id="Layer_1" xmlns="http://www.w3.org/2000/svg" xmlns:xlink="http://www.w3.org/1999/xlink" x="0px" y="0px"
	 width="200px" height="200px" viewBox="0 0 200 200" enable-background="new 0 0 200 200" xml:space="preserve">
<title>Asset 75</title>
<g id="Layer_2">
	<g id="Layer_1-2">
		<path fill="#FFFFFF" d="M100,183.313c-6.806-0.001-13.318-2.777-18.031-7.688H62c9.634,20.986,34.457,30.189,55.443,20.557
			c9.091-4.174,16.384-11.467,20.557-20.557h-19.969C113.318,180.535,106.807,183.312,100,183.313z"/>
		<path fill="#FFFFFF" d="M175.125,128.125v-26.188c-0.047-38.237-28.783-70.35-66.781-74.625V8.344C108.344,3.736,104.607,0,100,0
			c-4.608,0-8.344,3.736-8.344,8.344v18.969c-38.003,4.274-66.75,36.382-66.813,74.625v26.188c-0.188,13.063-2.094,22.5-16.688,22.5
			v16.719h183.688v-16.781C177.25,150.563,175.313,141.125,175.125,128.125z M158.438,117.188v33.375H41.563v-48.625
			c0.007-32.274,26.177-58.432,58.451-58.424c32.264,0.007,58.417,26.161,58.424,58.424V117.188z"/>
	</g>
</g>
</svg>
