<?xml version="1.0" encoding="utf-8"?>
<!-- Generator: Adobe Illustrator 13.0.0, SVG Export Plug-In . SVG Version: 6.00 Build 14948)  -->
<!DOCTYPE svg PUBLIC "-//W3C//DTD SVG 1.1//EN" "http://www.w3.org/Graphics/SVG/1.1/DTD/svg11.dtd">
<svg version="1.1" id="Layer_1" xmlns="http://www.w3.org/2000/svg" xmlns:xlink="http://www.w3.org/1999/xlink" x="0px" y="0px"
	 width="200px" height="200px" viewBox="0 0 200 200" enable-background="new 0 0 200 200" xml:space="preserve">
<title>Asset 21</title>
<g id="Layer_2">
	<g id="Layer_1-2">
		<path fill="#FFFFFF" d="M112.5,56.109c4.778-7.895,6.428-17.293,4.625-26.344c-1.697-8.973-7.158-16.789-15-21.469
			C86.344-1.078,65.25,5.172,55.25,22.109l-7.219,12.188l57.25,34L112.5,56.109z M99.313,45.391L70.906,28.516
			c5.688-7.5,15.438-10.219,22.844-5.844c3.783,2.294,6.392,6.11,7.156,10.469C101.682,37.29,101.123,41.578,99.313,45.391z"/>
		<path fill="#FFFFFF" d="M4.719,172.453l4.906,2.438l47.719-25.781l39.531-66.469L39.438,48.609L0,115.109l0.25,49.469
			C0.289,167.796,1.976,170.77,4.719,172.453z M45.344,71.453l28.656,17l-28.656,48.188l-28.5,15.406l-0.156-32.5L45.344,71.453z"/>
		<path fill="#FFFFFF" d="M8.344,179.422h183.313c4.607,0,8.344,3.729,8.344,8.328l0,0c0,4.6-3.736,8.328-8.344,8.328H8.344
			C3.736,196.078,0,192.35,0,187.75l0,0C0,183.15,3.736,179.422,8.344,179.422z"/>
	</g>
</g>
</svg>
