<?xml version="1.0" encoding="utf-8"?>
<!-- Generator: Adobe Illustrator 13.0.0, SVG Export Plug-In . SVG Version: 6.00 Build 14948)  -->
<!DOCTYPE svg PUBLIC "-//W3C//DTD SVG 1.1//EN" "http://www.w3.org/Graphics/SVG/1.1/DTD/svg11.dtd">
<svg version="1.1" id="Layer_1" xmlns="http://www.w3.org/2000/svg" xmlns:xlink="http://www.w3.org/1999/xlink" x="0px" y="0px"
	 width="200px" height="200px" viewBox="0 0 200 200" enable-background="new 0 0 200 200" xml:space="preserve">
<title>Asset 69</title>
<g id="Layer_2">
	<g id="Layer_1-2">
		<path fill="#FFFFFF" d="M175,25H25C11.193,25,0,36.193,0,50v100c-0.016,2.819,0.492,5.617,1.5,8.25
			c1.975,5.607,5.872,10.336,11,13.344c3.801,2.201,8.108,3.375,12.5,3.406h150c8.471-0.039,16.355-4.322,21-11.406
			c2.588-4.064,3.975-8.775,4-13.594V50C200,36.193,188.807,25,175,25z M103.125,158.344H25c-0.888-0.008-1.767-0.178-2.594-0.5
			l45.25-61.75l37.094,37.063l11.75,11.75l13.344,13.438H103.125z M183.344,150c-0.018,4.602-3.742,8.326-8.344,8.344h-21.5
			l-25-25.188l21.313-21.063l33.688,37.5L183.344,150z M183.344,124.594L156.25,94.406c-1.525-1.665-3.65-2.654-5.906-2.75
			c-2.289-0.109-4.512,0.78-6.094,2.438l-27.563,27.313l-44.094-44C70.82,75.732,68.435,74.862,66,75
			c-2.42,0.226-4.633,1.463-6.094,3.406L16.656,137.5V50c0.017-4.601,3.743-8.327,8.344-8.344h150
			c4.602,0.017,8.326,3.743,8.344,8.344V124.594z"/>
		<circle fill="#FFFFFF" cx="116.656" cy="83.344" r="16.656"/>
	</g>
</g>
</svg>
