<?xml version="1.0" encoding="utf-8"?>
<!-- Generator: Adobe Illustrator 13.0.0, SVG Export Plug-In . SVG Version: 6.00 Build 14948)  -->
<!DOCTYPE svg PUBLIC "-//W3C//DTD SVG 1.1//EN" "http://www.w3.org/Graphics/SVG/1.1/DTD/svg11.dtd">
<svg version="1.1" id="Layer_1" xmlns="http://www.w3.org/2000/svg" xmlns:xlink="http://www.w3.org/1999/xlink" x="0px" y="0px"
	 width="200px" height="200px" viewBox="0 0 200 200" enable-background="new 0 0 200 200" xml:space="preserve">
<title>Asset 55</title>
<g id="Layer_2">
	<g id="Layer_1-2">
		<path fill="#FFFFFF" d="M177.91,107.091c-3.903,0-7.066,3.165-7.066,7.066v49.593c-0.015,3.911-3.181,7.077-7.093,7.092H36.25
			c-3.911-0.015-7.078-3.181-7.092-7.092V36.248c0.014-3.911,3.181-7.078,7.092-7.092h49.593c3.91-0.24,6.885-3.604,6.645-7.513
			c-0.219-3.576-3.07-6.426-6.645-6.646H36.25c-11.736,0-21.25,9.514-21.25,21.25V163.75C15,175.485,24.514,185,36.25,185h127.501
			c11.736,0,21.25-9.515,21.25-21.25v-49.593c0-3.903-3.164-7.067-7.065-7.067C177.929,107.091,177.918,107.091,177.91,107.091z"/>
		<path fill="#FFFFFF" d="M177.91,14.998h-49.567c-3.909-0.24-7.273,2.735-7.512,6.646c-0.24,3.909,2.734,7.273,6.643,7.513
			c0.291,0.017,0.58,0.017,0.868,0h32.486l-94.163,94.166c-2.61,2.921-2.358,7.404,0.562,10.014c2.692,2.406,6.76,2.406,9.452,0
			l94.166-94.165v32.487c-0.239,3.91,2.735,7.273,6.646,7.512c3.909,0.239,7.273-2.736,7.512-6.646c0.019-0.289,0.019-0.578,0-0.867
			V22.09c0.016-3.902-3.136-7.078-7.039-7.092C177.946,14.998,177.929,14.998,177.91,14.998z"/>
	</g>
</g>
</svg>
