<?xml version="1.0" encoding="utf-8"?>
<!-- Generator: Adobe Illustrator 13.0.0, SVG Export Plug-In . SVG Version: 6.00 Build 14948)  -->
<!DOCTYPE svg PUBLIC "-//W3C//DTD SVG 1.1//EN" "http://www.w3.org/Graphics/SVG/1.1/DTD/svg11.dtd">
<svg version="1.1" id="Layer_1" xmlns="http://www.w3.org/2000/svg" xmlns:xlink="http://www.w3.org/1999/xlink" x="0px" y="0px"
	 width="200px" height="200px" viewBox="0 0 200 200" enable-background="new 0 0 200 200" xml:space="preserve">
<g>
	<path fill="#FFFFFF" d="M72.333,93.112c-10.045-7.445-11.545-12.113-11.545-14.233c0-4.925,3.03-11.571,9.032-19.79
		c3.535-4.949,5.703-8.118,6.811-9.948c2.831-4.087,4.265-8.307,4.265-12.541c0-10.797-6.004-16.989-16.474-16.989
		c-13.676,0-27.125,10.918-41.117,33.382C8.182,77.255,0.514,100.881,0.514,123.215c0,16.73,4.284,30.364,12.731,40.518
		c8.63,10.39,20.384,15.658,34.936,15.658c12.697,0,23.761-4.658,32.884-13.841c9.126-9.179,13.752-20.3,13.752-33.053
		C94.817,117.816,87.272,104.58,72.333,93.112z M72.341,156.875c-6.829,6.871-14.729,10.211-24.159,10.211
		c-10.871,0-19.203-3.669-25.472-11.214c-6.567-7.896-9.893-18.879-9.893-32.658c0-19.999,7.042-41.435,20.929-63.712
		c7.84-12.589,19.523-27.589,30.675-27.589c3.1,0,4.172,0.228,4.172,4.688c0,1.682-0.698,3.545-2.077,5.537l-0.215,0.311
		l-0.194,0.322c-0.921,1.521-3.036,4.6-6.286,9.148c-7.735,10.608-11.337,19.178-11.337,26.96c0,7.966,5.376,15.835,16.435,24.051
		c11.839,9.113,17.594,18.786,17.594,29.567C82.514,142.016,79.187,149.989,72.341,156.875z"/>
	<path fill="#FFFFFF" d="M176.002,93.112c-10.045-7.445-11.545-12.113-11.545-14.233c0-4.925,3.031-11.571,9.033-19.79
		c3.535-4.949,5.703-8.118,6.811-9.948c2.83-4.087,4.266-8.307,4.266-12.541c0-10.797-6.006-16.989-16.475-16.989
		c-13.678,0-27.127,10.918-41.117,33.382c-15.123,24.263-22.791,47.889-22.791,70.223c0,16.729,4.283,30.364,12.73,40.519
		c8.631,10.389,20.383,15.656,34.936,15.656c12.697,0,23.762-4.656,32.885-13.84c9.125-9.179,13.752-20.3,13.752-33.053
		C198.486,117.816,190.939,104.58,176.002,93.112z M176.01,156.875c-6.828,6.871-14.729,10.211-24.16,10.211
		c-10.869,0-19.201-3.669-25.471-11.214c-6.568-7.896-9.893-18.879-9.893-32.658c0-19.999,7.041-41.435,20.93-63.712
		c7.84-12.589,19.523-27.589,30.674-27.589c3.102,0,4.172,0.228,4.172,4.688c0,1.682-0.697,3.545-2.076,5.537l-0.215,0.311
		l-0.193,0.322c-0.922,1.521-3.036,4.6-6.286,9.148c-7.734,10.608-11.337,19.178-11.337,26.96c0,7.966,5.378,15.835,16.435,24.051
		c11.841,9.113,17.595,18.786,17.595,29.567C186.182,142.016,182.855,149.989,176.01,156.875z"/>
</g>
</svg>
