<?xml version="1.0" encoding="utf-8"?>
<!-- Generator: Adobe Illustrator 13.0.0, SVG Export Plug-In . SVG Version: 6.00 Build 14948)  -->
<!DOCTYPE svg PUBLIC "-//W3C//DTD SVG 1.1//EN" "http://www.w3.org/Graphics/SVG/1.1/DTD/svg11.dtd">
<svg version="1.1" id="Layer_1" xmlns="http://www.w3.org/2000/svg" xmlns:xlink="http://www.w3.org/1999/xlink" x="0px" y="0px"
	 width="100px" height="100px" viewBox="0 0 100 100" enable-background="new 0 0 100 100" xml:space="preserve">
<path fill="#FFFFFF" d="M95.908,95.436l-29.19-31.854c6.576-6.879,10.193-15.878,10.193-25.434c0-9.839-3.833-19.092-10.794-26.048
	c-6.96-6.956-16.209-10.793-26.05-10.793c-9.839,0-19.092,3.833-26.048,10.793C7.063,19.061,3.225,28.309,3.225,38.148
	S7.058,57.24,14.019,64.196S30.228,74.99,40.067,74.99c8.479,0,16.514-2.845,23.029-8.079l29.195,31.844
	c0.484,0.532,1.142,0.796,1.813,0.796c0.595,0,1.189-0.211,1.659-0.643c0.998-0.921,1.065-2.471,0.153-3.468L95.908,95.436z
	 M8.132,38.148c0-17.605,14.324-31.929,31.93-31.929c17.603,0,31.927,14.324,31.927,31.929c0,17.606-14.324,31.93-31.927,31.93
	C22.457,70.078,8.132,55.754,8.132,38.148"/>
</svg>
