<?xml version="1.0" encoding="utf-8"?>
<!-- Generator: Adobe Illustrator 13.0.0, SVG Export Plug-In . SVG Version: 6.00 Build 14948)  -->
<!DOCTYPE svg PUBLIC "-//W3C//DTD SVG 1.1//EN" "http://www.w3.org/Graphics/SVG/1.1/DTD/svg11.dtd">
<svg version="1.1" id="Layer_1" xmlns="http://www.w3.org/2000/svg" xmlns:xlink="http://www.w3.org/1999/xlink" x="0px" y="0px"
	 width="200px" height="200px" viewBox="0 0 200 200" enable-background="new 0 0 200 200" xml:space="preserve">
<title>Asset 1</title>
<path fill="#FFFFFF" d="M185.59,13.411c-1.307-1.305-3.047-1.987-4.795-1.985c-1.16,0-2.336,0.3-3.391,0.914L14.801,106.475
	c-2.125,1.234-3.381,3.486-3.381,5.863c0,0.586,0.075,1.182,0.236,1.77c0.801,2.951,3.481,5.002,6.545,5.004h61.683v61.687
	c0.002,3.068,2.057,5.754,5.021,6.552c0.592,0.147,1.161,0.227,1.753,0.227h0.007c2.363-0.002,4.612-1.24,5.855-3.359
	l94.144-162.611c0.611-1.055,0.916-2.233,0.916-3.396C187.58,16.453,186.893,14.713,185.59,13.411z M86.665,105.555H43.439
	l118.762-68.758L93.444,155.559v-43.227C93.44,108.59,90.413,105.559,86.665,105.555z"/>
</svg>
