<?xml version="1.0" encoding="utf-8"?>
<!-- Generator: Adobe Illustrator 13.0.0, SVG Export Plug-In . SVG Version: 6.00 Build 14948)  -->
<!DOCTYPE svg PUBLIC "-//W3C//DTD SVG 1.1//EN" "http://www.w3.org/Graphics/SVG/1.1/DTD/svg11.dtd">
<svg version="1.1" id="Layer_1" xmlns="http://www.w3.org/2000/svg" xmlns:xlink="http://www.w3.org/1999/xlink" x="0px" y="0px"
	 width="200px" height="200px" viewBox="0 0 200 200" enable-background="new 0 0 200 200" xml:space="preserve">
<title>Asset 69</title>
<g>
	<path fill="#FFFFFF" d="M61.12,57.77c9.537-0.004,17.276-7.747,17.281-17.283c-0.004-9.536-7.744-17.278-17.281-17.283
		c-9.536,0.004-17.278,7.747-17.283,17.283C43.842,50.023,51.584,57.766,61.12,57.77z M61.12,38.047
		c1.345,0.002,2.438,1.097,2.44,2.44c-0.002,1.343-1.095,2.438-2.44,2.44c-1.347-0.002-2.438-1.097-2.44-2.44
		C58.682,39.145,59.773,38.049,61.12,38.047z M137.089,80.185l-2.378-0.372l2.378,0.368c0.063-0.419,0.114-0.934,0.114-1.526
		c0.063-2.681-1.241-7.117-6.34-10.446L94.762,44.146c-1.245-0.833-2.685-1.245-4.105-1.245c-1.91,0-3.818,0.743-5.254,2.174
		L67.889,62.593H51.258c-4.104,0.002-7.42,3.325-7.42,7.42c0,4.097,3.318,7.418,7.42,7.422h19.704c1.962,0,3.854-0.774,5.248-2.17
		L91.6,59.886l25.88,17.25l-9.567,2.738c-8.492,2.509-14.77,10.851-14.844,19.685v29.507c0.002,4.097,3.318,7.42,7.422,7.422
		c4.108-0.008,7.411-3.331,7.42-7.422l-0.003-29.507c-0.016-0.875,0.457-2.193,1.293-3.281c0.818-1.099,1.962-1.917,2.803-2.14
		l15.52-4.451C134.741,87.706,136.84,82.439,137.089,80.185z M154.62,82.276c-23.099,0.006-41.866,18.772-41.87,41.869
		c0.004,23.099,18.771,41.864,41.87,41.871c23.089-0.007,41.862-18.772,41.866-41.871C196.482,101.046,177.709,82.282,154.62,82.276
		z M154.62,151.17v0.002c-14.896-0.027-27-12.135-27.027-27.027c0.027-14.892,12.132-26.999,27.027-27.025
		c14.896,0.027,26.999,12.134,27.024,27.025C181.619,139.037,169.516,151.145,154.62,151.17z M46.336,82.296
		C23.259,82.3,4.493,101.064,4.487,124.154c0.006,23.087,18.771,41.854,41.849,41.857c23.088-0.004,41.864-18.771,41.868-41.857
		C88.2,101.064,69.425,82.3,46.336,82.296z M46.336,151.171c-14.886-0.026-26.98-12.123-27.007-27.017
		c0.027-14.893,12.121-26.989,27.007-27.016c14.898,0.027,26.999,12.125,27.026,27.016
		C73.335,139.046,61.235,151.145,46.336,151.171z"/>
</g>
</svg>
