<?xml version="1.0" encoding="utf-8"?>
<!-- Generator: Adobe Illustrator 13.0.0, SVG Export Plug-In . SVG Version: 6.00 Build 14948)  -->
<!DOCTYPE svg PUBLIC "-//W3C//DTD SVG 1.1//EN" "http://www.w3.org/Graphics/SVG/1.1/DTD/svg11.dtd">
<svg version="1.1" id="Layer_1" xmlns="http://www.w3.org/2000/svg" xmlns:xlink="http://www.w3.org/1999/xlink" x="0px" y="0px"
	 width="200px" height="200px" viewBox="0 0 200 200" enable-background="new 0 0 200 200" xml:space="preserve">
<title>Asset 9</title>
<g id="Layer_2">
	<g id="Layer_1-2">
		<path fill="#FFFFFF" d="M175,200H25c-13.807,0-25-11.193-25-25V25C0,11.193,11.193,0,25,0h150c13.807,0,25,11.193,25,25v150
			C200,188.807,188.807,200,175,200z M25,16.656c-4.601,0.017-8.327,3.743-8.344,8.344v150c0.017,4.602,3.743,8.326,8.344,8.344h150
			c4.602-0.018,8.326-3.742,8.344-8.344V25c-0.018-4.601-3.742-8.327-8.344-8.344H25z"/>
	</g>
</g>
<path fill="#FFFFFF" d="M165.012,61.176c-1.665-1.667-3.883-2.515-6.062-2.511c-2.179-0.004-4.399,0.844-6.066,2.519l0.002,0.001
	l-40.085,39.993L91.222,79.68c-1.646-1.73-3.89-2.62-6.105-2.616c-2.054-0.004-4.154,0.763-5.773,2.291
	c-0.106,0.1-0.21,0.202-0.318,0.315l-46.1,46.1c-1.707,1.641-2.587,3.869-2.583,6.069c-0.004,2.055,0.765,4.152,2.282,5.768
	c0.09,0.098,0.183,0.19,0.275,0.28c1.643,1.709,3.873,2.586,6.073,2.58c0.008,0,0.017,0,0.024,0c2.049,0,4.13-0.769,5.738-2.276
	c0.144-0.133,0.256-0.248,0.355-0.351l40.031-39.944l21.617,21.537c1.644,1.707,3.875,2.582,6.067,2.576
	c2.057,0.004,4.148-0.765,5.761-2.274c0.125-0.117,0.223-0.216,0.305-0.3l46.142-46.141c1.664-1.665,2.512-3.881,2.506-6.058
	C167.523,65.055,166.676,62.839,165.012,61.176z"/>
</svg>
