<?xml version="1.0" encoding="utf-8"?>
<!-- Generator: Adobe Illustrator 13.0.0, SVG Export Plug-In . SVG Version: 6.00 Build 14948)  -->
<!DOCTYPE svg PUBLIC "-//W3C//DTD SVG 1.1//EN" "http://www.w3.org/Graphics/SVG/1.1/DTD/svg11.dtd">
<svg version="1.1" id="Layer_1" xmlns="http://www.w3.org/2000/svg" xmlns:xlink="http://www.w3.org/1999/xlink" x="0px" y="0px"
	 width="200px" height="200px" viewBox="0 0 200 200" enable-background="new 0 0 200 200" xml:space="preserve">
<title>Asset 38</title>
<rect x="67.503" y="128.844" fill="#D1E7F2" width="33.487" height="16.656"/>
<rect x="33.656" y="128.844" fill="#FFFFFF" width="33.487" height="16.656"/>
<rect x="66.472" y="128.844" fill="#D1E7F2" width="33.487" height="16.656"/>
<rect x="33.656" y="128.844" fill="#FFFFFF" width="33.487" height="16.656"/>
<rect x="134" y="128.844" fill="#D1E7F2" width="32.99" height="16.656"/>
<rect x="100.656" y="128.844" fill="#FFFFFF" width="32.99" height="16.656"/>
<rect x="132.984" y="128.844" fill="#D1E7F2" width="32.99" height="16.656"/>
<rect x="100.656" y="128.844" fill="#FFFFFF" width="32.99" height="16.656"/>
<rect x="67.503" y="93.844" fill="#D1E7F2" width="33.487" height="16.656"/>
<rect x="33.656" y="93.844" fill="#FFFFFF" width="33.487" height="16.656"/>
<rect x="66.472" y="93.844" fill="#D1E7F2" width="33.487" height="16.656"/>
<rect x="33.656" y="93.844" fill="#FFFFFF" width="33.487" height="16.656"/>
<rect x="134" y="93.844" fill="#D1E7F2" width="32.99" height="16.656"/>
<rect x="100.656" y="93.844" fill="#FFFFFF" width="32.99" height="16.656"/>
<rect x="132.984" y="93.844" fill="#D1E7F2" width="32.99" height="16.656"/>
<rect x="100.656" y="93.844" fill="#FFFFFF" width="32.99" height="16.656"/>
<rect x="33.344" y="58" fill="#FFFFFF" width="133.344" height="16.656"/>
<path fill="#FFFFFF" d="M175,2H25C11.193,2,0,13.193,0,27v64.5v34V172c0,13.807,11.193,25,25,25h150c13.807,0,25-11.193,25-25v-46.5
	v-34V27C200,13.193,188.807,2,175,2z M183.344,125.5V172c-0.018,4.602-3.742,8.326-8.344,8.344H25
	c-4.601-0.018-8.327-3.742-8.344-8.344v-46.5v-34V27c0.017-4.601,3.743-8.327,8.344-8.344h150c4.602,0.017,8.326,3.743,8.344,8.344
	v64.5V125.5z"/>
</svg>
