<?xml version="1.0" encoding="utf-8"?>
<!-- Generator: Adobe Illustrator 13.0.0, SVG Export Plug-In . SVG Version: 6.00 Build 14948)  -->
<!DOCTYPE svg PUBLIC "-//W3C//DTD SVG 1.1//EN" "http://www.w3.org/Graphics/SVG/1.1/DTD/svg11.dtd">
<svg version="1.1" id="Layer_1" xmlns="http://www.w3.org/2000/svg" xmlns:xlink="http://www.w3.org/1999/xlink" x="0px" y="0px"
	 width="200px" height="200px" viewBox="0 0 200 200" enable-background="new 0 0 200 200" xml:space="preserve">
<title>Asset 25</title>
<g id="Layer_2">
	<g id="Layer_1-2">
		<path fill="#FFFFFF" d="M191.656,24.984H150v-8.313c0.018-4.591-3.69-8.327-8.281-8.344c-0.021,0-0.041,0-0.063,0H58.344
			c-4.591-0.017-8.327,3.69-8.344,8.281c0,0.021,0,0.042,0,0.063v8.313H8.344C3.736,24.984,0,28.72,0,33.328
			s3.736,8.344,8.344,8.344H25v125c0,13.807,11.193,25,25,25h100c13.807,0,25-11.193,25-25v-125h16.656
			c4.607,0,8.344-3.736,8.344-8.344S196.264,24.984,191.656,24.984L191.656,24.984z M158.344,166.672
			c-0.018,4.596-3.748,8.313-8.344,8.313H50c-4.596,0-8.327-3.717-8.344-8.313v-125h116.688V166.672z"/>
		<path fill="#FFFFFF" d="M75,149.984c4.596,0,8.327-3.717,8.344-8.313V74.984c0-4.608-3.736-8.344-8.344-8.344
			s-8.344,3.736-8.344,8.344v66.688C66.673,146.268,70.404,149.984,75,149.984z"/>
		<path fill="#FFFFFF" d="M125,149.984c4.596,0,8.326-3.717,8.344-8.313V74.984c0-4.608-3.736-8.344-8.344-8.344
			s-8.344,3.736-8.344,8.344v66.688C116.674,146.268,120.404,149.984,125,149.984z"/>
	</g>
</g>
</svg>
