<?xml version="1.0" encoding="utf-8"?>
<!-- Generator: Adobe Illustrator 13.0.0, SVG Export Plug-In . SVG Version: 6.00 Build 14948)  -->
<!DOCTYPE svg PUBLIC "-//W3C//DTD SVG 1.1//EN" "http://www.w3.org/Graphics/SVG/1.1/DTD/svg11.dtd">
<svg version="1.1" id="Layer_1" xmlns="http://www.w3.org/2000/svg" xmlns:xlink="http://www.w3.org/1999/xlink" x="0px" y="0px"
	 width="200px" height="200px" viewBox="0 0 200 200" enable-background="new 0 0 200 200" xml:space="preserve">
<path fill="#FFFFFF" d="M200.768,47.333c0-0.93-0.193-1.86-0.578-2.73l-2.287,1.009l0,0l2.281-1.02
	c-1.125-2.508-3.586-4.01-6.174-4.008c-0.873,0-1.757,0.174-2.594,0.521c-1.186,0.428-2.377,0.837-3.574,1.228
	c1.773-2.242,3.477-4.541,5.106-6.893l0.05-0.073c0.72-1.117,1.098-2.408,1.095-3.691c0-1.105-0.271-2.225-0.827-3.243
	c-1.232-2.239-3.548-3.521-5.935-3.517c-1.101,0-2.224,0.271-3.248,0.835c-3.696,2.008-7.575,3.694-11.582,5.028
	c-1.509,0.516-3.021,0.97-4.545,1.364c-8.519-6.742-19.005-10.557-29.897-10.835h-0.066c-24.146,0.021-43.699,19.545-43.759,43.663
	c0,0.01,0,0.021,0,0.031c-0.002,0.021-0.002,0.029,0,0.036c0,0.001,0,0.002,0,0.004c0,0,0,0.001,0,0.002c0,0.004,0,0.009,0,0.014
	c0,1.177,0.049,2.354,0.146,3.527c-7.63-0.601-18.197-3.563-29.296-9.085c-12.562-6.232-25.866-15.697-36.85-28.525
	c-0.711-0.834-1.619-1.481-2.639-1.887c-0.814-0.325-1.663-0.481-2.498-0.481c-2.693-0.002-5.228,1.621-6.283,4.269
	c-2.426,6.541-3.615,13.319-3.615,20.08c0,5.151,0.692,10.298,2.068,15.295c-0.129-0.007-0.258-0.011-0.389-0.012
	c-0.129-0.002-0.253,0.004-0.37,0.01c-3.569,0.168-6.391,3.151-6.393,6.747c0.002,0.162,0.008,0.269,0.008,0.287
	c0.66,14.986,7.417,28.873,18.458,38.602c-1.573,1.264-2.53,3.191-2.527,5.27c-0.002,0.482,0.052,0.971,0.156,1.447
	c2.896,12.588,14.036,21.941,26.299,27.207c-13.513,6.06-28.04,9.609-42.869,10.449l-0.137,0.012
	c-2.067,0.226-3.934,1.377-5.024,3.131c-0.701,1.102-1.039,2.359-1.036,3.59c-0.002,2.238,1.124,4.438,3.161,5.724l0.045,0.031
	l0.034,0.019l0.087,0.051l0.04,0.022l0.035,0.019c11.082,5.772,30.998,10.94,55.553,10.963l0.004-0.004v0.002
	c17.056-0.017,34.016-2.53,50.338-7.467h0.009l0.822-0.138l0.15-0.054c29.641-10.182,47.574-33.098,58.113-55.336
	c10.116-21.364,13.566-42.131,14.193-51.46c5.781-4.657,10.955-10.021,15.4-15.971c0.877-1.19,1.338-2.601,1.336-4.033v-0.004
	l0.002-0.004L200.768,47.333z M170.6,64.079c0.004,0.131,0.01,0.263,0.01,0.395c0,0.03-0.002,0.064-0.002,0.103
	c0.025,5.19-2.733,25.41-12.08,45.95c-9.383,20.688-25.188,41.81-51.113,50.775c-14.924,4.625-30.418,6.951-45.923,6.951
	c-7.775,0-15.555-0.584-23.272-1.754c5.68-1.616,11.082-3.508,15.928-5.547c7.989-3.379,14.445-7.069,18.341-10.9
	c1.107-1.115,1.796-2.563,1.948-4.117c0.023-0.229,0.031-0.459,0.031-0.668c0.002-3.444-2.604-6.373-6.089-6.724
	c-8.93-0.834-20.029-6.188-26.117-12.778c1.991-0.293,3.962-0.72,5.902-1.276l0.068-0.021l0.063-0.021
	c1.754-0.605,3.186-1.895,3.95-3.543c0.426-0.924,0.63-1.897,0.63-2.854v-0.006c0.002-2.548-1.455-4.979-3.908-6.125
	c-11.024-5.104-18.942-12.657-23.302-21.711c1.788,0.954,3.608,1.848,5.459,2.678l0.029,0.012l0.197,0.081l0.048,0.017
	c0.745,0.25,1.469,0.368,2.196,0.368c1.844,0,3.65-0.757,4.953-2.158c1.201-1.294,1.808-2.953,1.808-4.595v-0.006l0,0v-0.002v-0.009
	c0-1.806-0.732-3.617-2.152-4.94l-0.127-0.108c-6.11-4.876-11.398-16.884-11.337-28.981c-0.001-0.012-0.001-0.02-0.002-0.023
	l0.002-0.058c0-1.118,0.042-2.237,0.128-3.352c23.862,22.58,52.63,33.009,70.614,33.084c2.179,0,4.219-0.154,6.107-0.487
	c0.237-0.042,0.468-0.094,0.708-0.165c2.949-0.851,4.893-3.538,4.891-6.493c0-0.632-0.092-1.249-0.254-1.835
	c-0.775-2.713-1.164-5.49-1.164-8.28l-0.004-0.02c0-0.015,0-0.03,0-0.045c0.043-16.63,13.521-30.063,30.118-30.061
	c0.017-0.002,0.039-0.002,0.068-0.002c0.09,0,0.127,0,0.138,0c4.203-0.011,9.2,1.263,13.458,3.09
	c4.256,1.788,7.827,4.258,9.073,5.912c1.314,1.644,3.266,2.556,5.293,2.556c0.247,0,0.496-0.014,0.747-0.041
	c-0.372,0.851-0.565,1.771-0.563,2.699v0.004c-0.003,0.041-0.002,0.083,0,0.128c0.018,1.008,0.266,2.024,0.746,2.958
	c0.559,1.055,1.032,2.1,1.444,3.176c0.319,0.868,0.845,1.698,1.54,2.395c0.851,0.79,1.766,1.199,2.63,1.414
	c-1.197,1.261-1.866,2.923-1.866,4.657C170.591,63.889,170.596,63.993,170.6,64.079z"/>
</svg>
