<?xml version="1.0" encoding="utf-8"?>
<!-- Generator: Adobe Illustrator 13.0.0, SVG Export Plug-In . SVG Version: 6.00 Build 14948)  -->
<!DOCTYPE svg PUBLIC "-//W3C//DTD SVG 1.1//EN" "http://www.w3.org/Graphics/SVG/1.1/DTD/svg11.dtd">
<svg version="1.1" id="Layer_1" xmlns="http://www.w3.org/2000/svg" xmlns:xlink="http://www.w3.org/1999/xlink" x="0px" y="0px"
	 width="200px" height="200px" viewBox="0 0 200 200" enable-background="new 0 0 200 200" xml:space="preserve">
<g>
	<g>
		<path fill="#FFFFFF" d="M100,124.003c-30.589,0-55.501-24.913-55.501-55.502C44.499,37.912,69.411,13,100,13
			c30.59,0,55.502,24.912,55.502,55.501C155.502,99.09,130.59,124.003,100,124.003z M100,28.816
			c-21.841,0-39.627,17.786-39.627,39.627c0,21.841,17.786,39.628,39.627,39.628c21.842,0,39.626-17.787,39.626-39.628
			C139.626,46.602,121.842,28.816,100,28.816z"/>
	</g>
	<g>
		<path fill="#FFFFFF" d="M179.312,187.439h-15.874c0-34.992-28.445-63.437-63.438-63.437c-34.993,0-63.438,28.444-63.438,63.437
			H20.688c0-43.739,35.571-79.312,79.312-79.312C143.74,108.128,179.312,143.7,179.312,187.439z"/>
	</g>
</g>
</svg>
