<?xml version="1.0" encoding="utf-8"?>
<!-- Generator: Adobe Illustrator 13.0.0, SVG Export Plug-In . SVG Version: 6.00 Build 14948)  -->
<!DOCTYPE svg PUBLIC "-//W3C//DTD SVG 1.1//EN" "http://www.w3.org/Graphics/SVG/1.1/DTD/svg11.dtd">
<svg version="1.1" id="Layer_1" xmlns="http://www.w3.org/2000/svg" xmlns:xlink="http://www.w3.org/1999/xlink" x="0px" y="0px"
	 width="200px" height="200px" viewBox="0 0 200 200" enable-background="new 0 0 200 200" xml:space="preserve">
<title>Asset 59</title>
<g id="Layer_2">
	<g id="Layer_1-2">
		<path fill="#FFFFFF" d="M137.516,175h16.656v16.656c-0.281,4.6,3.219,8.557,7.818,8.838c4.6,0.282,8.557-3.218,8.838-7.817
			c0.021-0.34,0.021-0.681,0-1.021V175h16.688c4.6-0.281,8.1-4.238,7.818-8.838c-0.258-4.207-3.612-7.561-7.818-7.818h-16.688
			v-16.688c-0.281-4.6-4.238-8.1-8.838-7.818c-4.207,0.258-7.561,3.612-7.818,7.818v16.688h-16.656
			c-4.6-0.281-8.557,3.219-8.838,7.818c-0.283,4.599,3.217,8.557,7.816,8.838C136.834,175.021,137.176,175.021,137.516,175z"/>
		<path fill="#FFFFFF" d="M95.828,83.344c-23.023,0-41.688-18.664-41.688-41.688S72.805-0.031,95.828-0.031
			s41.688,18.664,41.688,41.688l0,0C137.498,64.672,118.844,83.327,95.828,83.344z M95.828,16.656c-13.807,0-25,11.193-25,25
			s11.193,25,25,25c13.807,0,25-11.193,25-25S109.635,16.656,95.828,16.656L95.828,16.656z"/>
		<path fill="#FFFFFF" d="M104.172,183.344H20.828c0.03-41.422,33.633-74.976,75.054-74.945c16.143,0.012,31.85,5.23,44.79,14.883
			c1.427,1.096,3.17,1.699,4.969,1.719l0,0c4.643-0.04,8.373-3.836,8.334-8.479c-0.023-2.635-1.28-5.107-3.396-6.678
			c-17.813-13.313-39.865-19.679-62.031-17.906c-48.188,3.75-84.375,45.969-84.375,94.313v4.375
			c-0.45,4.707,3.002,8.889,7.709,9.338c0.211,0.021,0.422,0.033,0.634,0.037h91.656c4.607,0,8.344-3.736,8.344-8.344l0,0
			C112.498,187.061,108.768,183.344,104.172,183.344z"/>
	</g>
</g>
</svg>
