<?xml version="1.0" encoding="utf-8"?>
<!-- Generator: Adobe Illustrator 13.0.0, SVG Export Plug-In . SVG Version: 6.00 Build 14948)  -->
<!DOCTYPE svg PUBLIC "-//W3C//DTD SVG 1.1//EN" "http://www.w3.org/Graphics/SVG/1.1/DTD/svg11.dtd">
<svg version="1.1" id="Layer_1" xmlns="http://www.w3.org/2000/svg" xmlns:xlink="http://www.w3.org/1999/xlink" x="0px" y="0px"
	 width="200px" height="200px" viewBox="0 0 200 200" enable-background="new 0 0 200 200" xml:space="preserve">
<path fill="#FFFFFF" d="M195.325,51.219c-2.654-1.367-5.88-1.132-8.311,0.604l-45.681,32.63V58.333
	c-0.006-13.628-11.042-24.662-24.668-24.668H25C11.374,33.671,0.338,44.707,0.332,58.333v83.333
	C0.338,155.292,11.374,166.328,25,166.334h91.666c13.626-0.006,24.662-11.042,24.668-24.668v-26.121l45.681,32.63
	c1.378,0.984,3.014,1.486,4.655,1.486c1.252,0,2.507-0.292,3.655-0.883c2.655-1.365,4.341-4.127,4.341-7.112V58.333
	C199.666,55.348,197.98,52.586,195.325,51.219z M125.333,141.666c-0.008,4.783-3.884,8.658-8.667,8.667H25
	c-4.783-0.009-8.659-3.884-8.667-8.667V58.333c0.008-4.783,3.884-8.659,8.667-8.667h91.666c4.783,0.008,8.659,3.884,8.667,8.667
	V141.666z M183.665,126.118L147.097,100l36.568-26.122V126.118z"/>
</svg>
