<?xml version="1.0" encoding="utf-8"?>
<!-- Generator: Adobe Illustrator 13.0.0, SVG Export Plug-In . SVG Version: 6.00 Build 14948)  -->
<!DOCTYPE svg PUBLIC "-//W3C//DTD SVG 1.1//EN" "http://www.w3.org/Graphics/SVG/1.1/DTD/svg11.dtd">
<svg version="1.1" id="Layer_1" xmlns="http://www.w3.org/2000/svg" xmlns:xlink="http://www.w3.org/1999/xlink" x="0px" y="0px"
	 width="200px" height="200px" viewBox="0 0 200 200" enable-background="new 0 0 200 200" xml:space="preserve">
<title>Asset 68</title>
<g id="Layer_2">
	<g id="Layer_1-2">
		<path fill="#FFFFFF" d="M100,158.328c-40.036,0.268-77.377-20.134-98.781-53.969c-1.625-2.68-1.625-6.04,0-8.719
			C22.635,61.819,59.969,41.422,100,41.672c40.031-0.25,77.365,20.147,98.781,53.969c1.625,2.679,1.625,6.039,0,8.719
			C177.377,138.194,140.035,158.596,100,158.328z M18.281,100.016C37.136,126.353,67.61,141.887,100,141.672
			c32.39,0.215,62.864-15.319,81.719-41.656C162.878,73.659,132.397,58.11,100,58.328C67.603,58.11,37.122,73.659,18.281,100.016z"
			/>
		<path fill="#FFFFFF" d="M100,125.016c-13.807,0-25-11.193-25-25c0-13.807,11.193-25,25-25c13.807,0,25,11.193,25,25
			C125,113.822,113.807,125.016,100,125.016z M100,91.672c-4.608,0-8.344,3.736-8.344,8.344c0,4.607,3.736,8.344,8.344,8.344
			c4.607,0,8.344-3.736,8.344-8.344l0,0C108.326,95.415,104.602,91.689,100,91.672z"/>
	</g>
</g>
</svg>
